<svg width="22" height="22" viewBox="0 0 22 22" fill="none" xmlns="http://www.w3.org/2000/svg">
<g clip-path="url(#clip0_744_3698)">
<path d="M7.25263 11.1798C7.44476 11.1608 7.58442 10.9889 7.56282 10.7991C7.44815 9.79442 7.2481 8.03941 7.1148 6.86985C7.05517 6.346 7.59182 5.94545 8.07704 6.15164C9.1604 6.61213 10.786 7.30306 11.7169 7.69858C11.8927 7.77327 12.0972 7.6883 12.1697 7.50968C12.5542 6.56378 12.9591 5.44258 13.2613 4.57799C13.4542 4.02602 14.2005 3.92858 14.4967 4.42385C15.4811 6.0701 17.1811 9.01427 18.0869 11.1746C18.2143 11.4789 18.2274 11.8119 18.0336 12.0856C17.6596 12.6123 16.7059 13.6551 14.2801 15.4657C11.9131 17.2324 10.6458 17.8635 10.0175 18.0869C9.67146 18.2099 9.33 18.0848 9.05753 17.8477C7.07702 16.1218 4.89353 13.8573 3.65659 12.5375C3.25991 12.1142 3.56381 11.4194 4.15099 11.3912C5.06328 11.3474 6.24382 11.2784 7.25263 11.1798Z" fill="#FCBF28"/>
<path d="M13.2814 10.7149C13.5853 11.1221 13.6807 13.7981 13.2735 14.102C12.8664 14.4059 10.328 13.5533 10.0241 13.1461C9.72021 12.739 9.62479 10.0629 10.0319 9.75902C10.4391 9.45512 12.9775 10.3078 13.2814 10.7149Z" fill="white"/>
</g>
<defs>
<clipPath id="clip0_744_3698">
<rect width="15.4839" height="15.4839" fill="white" transform="translate(0 9.26172) rotate(-36.7373)"/>
</clipPath>
</defs>
</svg>
