<svg width="2304" height="2304" viewBox="0 0 2304 2304" fill="none" xmlns="http://www.w3.org/2000/svg">
<g style="mix-blend-mode:luminosity" opacity="0.2">
<path fill-rule="evenodd" clip-rule="evenodd" d="M1083.77 0L1151.49 1151.32L1009.27 6.77281L876.19 31.3231L1151.49 1151.32L701.46 89.3965L580.063 149.502L1151.49 1151.32L427.852 253.291L327.619 344.212L1151.49 1151.32L209.609 485.587L138.159 600.55L1151.49 1151.32L63.3228 768.847L26.0741 899.048L1151.49 1151.32L0.338624 1081.4L0 1216.85L1151.49 1151.32L25.0579 1399.2L61.968 1529.57L1151.49 1151.32L135.958 1698.03L207.069 1813.33L1151.49 1151.32L324.402 1955.22L424.466 2046.65L1151.49 1151.32L576.169 2150.94L697.397 2211.39L1151.49 1151.32L871.788 2270.14L1004.87 2295.37L1151.49 1151.32L1188.74 2304L1323.68 2291.64L1151.49 1151.32L1502.98 2249.82L1629.29 2201.06L1151.49 1151.32L1790.31 2111.49L1898.5 2030.05L1151.49 1151.32L2028.7 1900.02L2110.48 1792L1151.49 1151.32L2200.21 1631.15L2249.14 1505.02L1151.49 1151.32L2291.47 1325.71L2304 1190.94L1151.49 1151.32L2295.7 1007.07L2270.81 873.82L1151.49 1151.32L2212.4 699.26L2152.13 578.032L1151.49 1151.32L2048.17 425.989L1956.91 325.925L1151.49 1151.32L1815.36 208.254L1700.23 136.973L1151.49 1151.32L1531.77 62.4764L1401.57 25.397L1151.49 1151.32L1219.22 0H1083.77Z" fill="url(#paint0_radial_1079_1353)"/>
</g>
<defs>
<radialGradient id="paint0_radial_1079_1353" cx="0" cy="0" r="1" gradientUnits="userSpaceOnUse" gradientTransform="translate(1152 1152) rotate(4.14157) scale(1007.05 1007.05)">
<stop offset="0.115398" stop-color="#4E4E4E" stop-opacity="0"/>
<stop offset="1" stop-color="#4E4E4E" stop-opacity="0.8"/>
</radialGradient>
</defs>
</svg>
