<svg width="19" height="20" viewBox="0 0 19 20" fill="none" xmlns="http://www.w3.org/2000/svg">
<path d="M9.44541 0.380859C4.22895 0.380859 -7.59209e-09 4.60956 -1.648e-08 9.82615C-1.90469e-08 11.2973 0.337478 12.6892 0.937413 13.9305L1.2542 13.6019C1.27938 13.5672 1.30692 13.5338 1.33808 13.5026C1.3534 13.4897 1.38531 13.4597 1.45784 13.3906C1.5204 13.3309 1.61287 13.2422 1.75506 13.1055C2.3135 12.5677 2.87517 12.0331 3.43984 11.5017C4.06158 10.9136 4.56705 10.4501 4.94329 10.124C5.67557 9.48154 5.92469 9.30756 6.28174 9.30756C6.61436 9.30756 6.88404 9.46309 7.97312 10.1223C8.11992 10.211 8.30412 10.3202 8.49591 10.4344L8.80485 10.6181C8.94877 10.7022 9.11272 10.7465 9.27966 10.7463C9.52766 10.7463 9.75934 10.6517 9.93144 10.4809C10.5319 9.89797 11.4412 8.94499 12.3382 7.96267L10.2906 7.96267C10.1782 7.96222 10.0669 7.93976 9.96323 7.89659C9.85953 7.85342 9.76541 7.79038 9.68623 7.71106C9.60705 7.63174 9.54437 7.53771 9.50177 7.43432C9.45917 7.33094 9.43748 7.22023 9.43793 7.10851L9.43793 7.10145C9.43838 6.98971 9.46096 6.87914 9.50441 6.77607C9.54786 6.67299 9.61131 6.57943 9.69115 6.50073C9.77099 6.42202 9.86564 6.35971 9.96972 6.31735C10.0738 6.27499 10.1852 6.25342 10.2977 6.25386L13.9855 6.25386C14.5685 6.25386 15.0462 6.72861 15.0462 7.3075L15.0462 10.9793C15.0452 11.2049 14.9541 11.4209 14.7928 11.5798C14.6316 11.7386 14.4135 11.8273 14.1864 11.8263L14.1791 11.8263C13.952 11.8253 13.7346 11.7348 13.5747 11.5746C13.4148 11.4144 13.3255 11.1977 13.3264 10.972L13.3264 9.26645C10.2705 12.6238 9.85056 12.6259 9.50747 12.6259C9.03864 12.6259 8.45366 12.2974 7.13154 11.4904C7.06786 11.4524 7.00019 11.4115 6.93077 11.3694C6.78621 11.282 6.6338 11.1895 6.49123 11.1089C6.44991 11.0889 6.40371 11.081 6.35804 11.0861C6.31238 11.0913 6.26913 11.1093 6.23338 11.138C5.63619 11.6413 4.4362 12.7519 3.10049 14.0369L1.99396 15.0302L1.74871 15.2504L1.74684 15.2478L1.72627 15.2659C3.4361 17.6881 6.25482 19.2712 9.44504 19.2712C14.6614 19.2712 18.8903 15.0422 18.8903 9.82578C18.8907 4.60956 14.6617 0.380859 9.44541 0.380859Z" fill="#00FF86"/>
</svg>
