<svg width="18" height="18" viewBox="0 0 18 18" fill="none" xmlns="http://www.w3.org/2000/svg">
<path d="M9.01061 18C10.2909 18 11.3281 16.992 11.3281 15.75H6.69198C6.69198 16.9909 7.72698 18 9.00948 18M16.3749 13.1265C16.1038 12.944 15.8817 12.6978 15.7279 12.4095C15.5741 12.1211 15.4934 11.7995 15.4929 11.4727V7.47225C15.4929 4.54163 13.3104 2.09475 10.3944 1.49287V1.35C10.3944 0.601875 9.77111 0 9.00611 0C8.24111 0 7.61786 0.604125 7.61786 1.34888V1.49175C4.70186 2.0925 2.51936 4.53825 2.51936 7.47V11.4694C2.51936 12.1117 2.21336 12.6799 1.73748 13.0511C1.68123 13.0961 1.65873 13.1119 1.50573 13.2199C1.38965 13.3016 1.29498 13.4102 1.22977 13.5363C1.16456 13.6624 1.13071 13.8024 1.13111 13.9444C1.13111 14.4428 1.54398 14.8444 2.05698 14.8444H15.9552C16.0752 14.8463 16.1943 14.8245 16.3059 14.7803C16.4174 14.7361 16.5191 14.6703 16.6051 14.5867C16.6911 14.503 16.7598 14.4033 16.8071 14.293C16.8545 14.1828 16.8796 14.0643 16.8811 13.9444C16.8811 13.7919 16.8417 13.642 16.7668 13.5092C16.6919 13.3763 16.5841 13.2651 16.4536 13.1861C16.4109 13.1636 16.4007 13.1434 16.3749 13.1254" fill="url(#paint0_linear_601_16487)"/>
<defs>
<linearGradient id="paint0_linear_601_16487" x1="19.6292" y1="78.5" x2="2.42761" y2="78.7831" gradientUnits="userSpaceOnUse">
<stop stop-color="#F2DA18"/>
<stop offset="1" stop-color="#4DFFC4"/>
</linearGradient>
</defs>
</svg>
