<svg width="9" height="9" viewBox="0 0 9 9" fill="none" xmlns="http://www.w3.org/2000/svg">
<g clip-path="url(#clip0_45_6596)">
<path d="M3.43098 5.9154L5.86731 3.47893L5.37132 2.98295L2.93528 5.41942L3.43098 5.9154ZM4.16364 5.81078C4.25996 6.08134 4.20231 6.39494 3.9856 6.61094C3.51296 7.08259 3.35982 7.31744 2.95735 7.31744C2.55798 7.31744 2.44365 7.12422 1.75895 6.4412C1.68761 6.36989 1.63102 6.28522 1.59242 6.19202C1.55381 6.09883 1.53395 5.99895 1.53396 5.89808C1.53398 5.79721 1.55386 5.69733 1.59249 5.60415C1.63112 5.51096 1.68773 5.42631 1.75909 5.35501C2.18814 4.92681 2.48317 4.49087 3.05199 4.69745L3.57301 4.17784C3.00489 3.8184 2.2427 3.88492 1.74812 4.37865L1.26465 4.86142C0.691604 5.43306 0.691463 6.36329 1.26437 6.93508C1.90393 7.57309 2.21359 8.01564 2.95735 8.01564C3.67595 8.01564 3.98729 7.59686 4.48004 7.10495C4.97068 6.616 5.04353 5.86042 4.68535 5.29033L4.16364 5.81092V5.81078ZM7.57801 1.92447L6.92551 1.27197C6.35317 0.6992 5.42223 0.701731 4.85256 1.27183L4.37007 1.75431C3.87789 2.24636 3.80814 3.00615 4.16912 3.57526L4.68873 3.05551C4.5789 2.75387 4.66412 2.44759 4.86353 2.24804C5.34953 1.76218 5.49184 1.54197 5.8891 1.54197C6.28792 1.54197 6.40224 1.73575 7.08456 2.4182C7.22832 2.56235 7.30906 2.75761 7.30909 2.96119C7.30912 3.16478 7.22842 3.36006 7.0847 3.50425C6.65776 3.93104 6.36723 4.3622 5.80262 4.16392L5.2816 4.68508C5.51458 4.83135 5.78417 4.90877 6.05926 4.90839C6.77476 4.90839 7.08385 4.49228 7.57815 3.99798C8.14993 3.4262 8.14965 2.49611 7.57815 1.92447H7.57801Z" fill="#617178"/>
</g>
<defs>
<clipPath id="clip0_45_6596">
<rect width="9" height="9" fill="white"/>
</clipPath>
</defs>
</svg>
