<svg width="9" height="9" viewBox="0 0 9 9" fill="none" xmlns="http://www.w3.org/2000/svg">
<g clip-path="url(#clip0_209_12786)">
<path d="M3.43092 5.9154L5.86725 3.47893L5.37126 2.98295L2.93521 5.41942L3.43092 5.9154ZM4.16357 5.81078C4.2599 6.08134 4.20225 6.39494 3.98554 6.61094C3.5129 7.08259 3.35976 7.31744 2.95729 7.31744C2.55792 7.31744 2.44359 7.12422 1.75889 6.4412C1.68755 6.36989 1.63096 6.28522 1.59236 6.19202C1.55375 6.09883 1.53389 5.99895 1.5339 5.89808C1.53391 5.79721 1.5538 5.69733 1.59243 5.60415C1.63106 5.51096 1.68767 5.42631 1.75903 5.35501C2.18807 4.92681 2.48311 4.49087 3.05193 4.69745L3.57295 4.17784C3.00482 3.8184 2.24264 3.88492 1.74806 4.37865L1.26459 4.86142C0.691543 5.43306 0.691402 6.36329 1.26431 6.93508C1.90387 7.57309 2.21353 8.01564 2.95729 8.01564C3.67589 8.01564 3.98723 7.59686 4.47998 7.10495C4.97062 6.616 5.04347 5.86042 4.68529 5.29033L4.16357 5.81092V5.81078ZM7.57795 1.92447L6.92545 1.27197C6.35311 0.6992 5.42217 0.701731 4.8525 1.27183L4.37001 1.75431C3.87782 2.24636 3.80807 3.00615 4.16906 3.57526L4.68867 3.05551C4.57884 2.75387 4.66406 2.44759 4.86346 2.24804C5.34946 1.76218 5.49178 1.54197 5.88904 1.54197C6.28786 1.54197 6.40218 1.73575 7.0845 2.4182C7.22826 2.56235 7.309 2.75761 7.30903 2.96119C7.30905 3.16478 7.22836 3.36006 7.08464 3.50425C6.6577 3.93104 6.36717 4.3622 5.80256 4.16392L5.28154 4.68508C5.51452 4.83135 5.78411 4.90877 6.0592 4.90839C6.7747 4.90839 7.08379 4.49228 7.57809 3.99798C8.14987 3.4262 8.14959 2.49611 7.57809 1.92447H7.57795Z" fill="#B0DDEF"/>
</g>
<defs>
<clipPath id="clip0_209_12786">
<rect width="9" height="9" fill="white"/>
</clipPath>
</defs>
</svg>
