<svg width="8" height="8" viewBox="0 0 8 8" fill="none" xmlns="http://www.w3.org/2000/svg">
<g clip-path="url(#clip0_45_6598)">
<path d="M6.1485 4.92101C5.6055 4.92101 5.13 5.20401 4.8575 5.63001L3.2145 4.69051C3.321 4.4825 3.386 4.25051 3.386 4.00001C3.386 3.84551 3.357 3.70001 3.314 3.55901L5.023 2.58201C5.3035 2.88601 5.7015 3.07951 6.148 3.07951C6.9945 3.07951 7.682 2.39251 7.682 1.54551C7.682 0.698505 6.9945 0.0115051 6.148 0.0115051C5.3005 0.0115051 4.614 0.698505 4.614 1.54551C4.614 1.70001 4.64351 1.84601 4.6855 1.98651L2.9765 2.96301C2.696 2.65901 2.298 2.46601 1.852 2.46601C1.0045 2.46601 0.317505 3.15251 0.317505 4.00001C0.317505 4.84751 1.0045 5.53401 1.8515 5.53401C2.2015 5.53401 2.52001 5.412 2.77801 5.21551L2.77201 5.22601L4.6305 6.28851C4.6235 6.34301 4.614 6.39701 4.614 6.45551C4.614 7.30101 5.3005 7.98851 6.148 7.98851C6.9945 7.98851 7.682 7.30101 7.682 6.45551C7.68251 5.60751 6.995 4.92101 6.1485 4.92101ZM6.1485 0.624505C6.6565 0.624505 7.0695 1.03701 7.0695 1.54501C7.0695 2.0535 6.6565 2.46551 6.1485 2.46551C5.6395 2.46551 5.2275 2.0535 5.2275 1.54501C5.2275 1.03701 5.6395 0.624505 6.1485 0.624505ZM1.852 4.92101C1.3435 4.92101 0.932005 4.50901 0.932005 4.00001C0.932005 3.49151 1.344 3.07951 1.852 3.07951C2.3605 3.07951 2.7725 3.49151 2.7725 4.00001C2.7725 4.50901 2.3605 4.92101 1.852 4.92101ZM6.1485 7.37601C5.6395 7.37601 5.2275 6.96301 5.2275 6.45601C5.2275 5.946 5.6395 5.53401 6.1485 5.53401C6.6565 5.53401 7.0695 5.946 7.0695 6.45601C7.0695 6.96301 6.6565 7.37601 6.1485 7.37601Z" fill="#617178"/>
</g>
<defs>
<clipPath id="clip0_45_6598">
<rect width="8" height="8" fill="white"/>
</clipPath>
</defs>
</svg>
