<svg width="8" height="8" viewBox="0 0 8 8" fill="none" xmlns="http://www.w3.org/2000/svg">
<g clip-path="url(#clip0_209_12788)">
<path d="M6.1485 4.92097C5.6055 4.92097 5.13 5.20397 4.8575 5.62997L3.2145 4.69047C3.321 4.48247 3.386 4.25047 3.386 3.99997C3.386 3.84547 3.357 3.69997 3.314 3.55897L5.023 2.58197C5.3035 2.88597 5.7015 3.07947 6.148 3.07947C6.9945 3.07947 7.682 2.39247 7.682 1.54547C7.682 0.698475 6.9945 0.0114746 6.148 0.0114746C5.3005 0.0114746 4.614 0.698475 4.614 1.54547C4.614 1.69997 4.64351 1.84597 4.6855 1.98647L2.9765 2.96297C2.696 2.65897 2.298 2.46597 1.852 2.46597C1.0045 2.46597 0.317505 3.15247 0.317505 3.99997C0.317505 4.84747 1.0045 5.53397 1.8515 5.53397C2.2015 5.53397 2.52001 5.41197 2.77801 5.21547L2.77201 5.22597L4.6305 6.28847C4.6235 6.34297 4.614 6.39698 4.614 6.45547C4.614 7.30097 5.3005 7.98847 6.148 7.98847C6.9945 7.98847 7.682 7.30097 7.682 6.45547C7.68251 5.60747 6.995 4.92097 6.1485 4.92097ZM6.1485 0.624475C6.6565 0.624475 7.0695 1.03697 7.0695 1.54497C7.0695 2.05347 6.6565 2.46547 6.1485 2.46547C5.6395 2.46547 5.2275 2.05347 5.2275 1.54497C5.2275 1.03697 5.6395 0.624475 6.1485 0.624475ZM1.852 4.92097C1.3435 4.92097 0.932005 4.50897 0.932005 3.99997C0.932005 3.49147 1.344 3.07947 1.852 3.07947C2.3605 3.07947 2.7725 3.49147 2.7725 3.99997C2.7725 4.50897 2.3605 4.92097 1.852 4.92097ZM6.1485 7.37597C5.6395 7.37597 5.2275 6.96297 5.2275 6.45597C5.2275 5.94597 5.6395 5.53397 6.1485 5.53397C6.6565 5.53397 7.0695 5.94597 7.0695 6.45597C7.0695 6.96297 6.6565 7.37597 6.1485 7.37597Z" fill="#949C9E"/>
</g>
<defs>
<clipPath id="clip0_209_12788">
<rect width="8" height="8" fill="#949C9E"/>
</clipPath>
</defs>
</svg>
