<svg width="30" height="30" viewBox="0 0 30 30" fill="none" xmlns="http://www.w3.org/2000/svg">
<path fill-rule="evenodd" clip-rule="evenodd" d="M27.9377 20.359C28.6222 18.7083 29 16.8983 29 15C29 13.1017 28.6222 11.2917 27.9377 9.64097L28.8614 9.25792C29.5954 11.0279 30 12.968 30 15C30 17.032 29.5954 18.9721 28.8614 20.7421L27.9377 20.359ZM20.359 2.06233L20.7421 1.1386C18.9721 0.40461 17.032 0 15 0C12.968 0 11.0279 0.40461 9.25792 1.1386L9.64097 2.06233C11.2917 1.37781 13.1017 1 15 1C16.8983 1 18.7083 1.37781 20.359 2.06233ZM2.06233 9.64097C1.37781 11.2917 1 13.1017 1 15C1 16.8983 1.37781 18.7083 2.06233 20.359L1.1386 20.7421C0.40461 18.9721 0 17.032 0 15C0 12.968 0.40461 11.0279 1.1386 9.25792L2.06233 9.64097ZM9.64097 27.9377L9.25792 28.8614C11.0279 29.5954 12.968 30 15 30C17.032 30 18.9721 29.5954 20.7421 28.8614L20.359 27.9377C18.7083 28.6222 16.8983 29 15 29C13.1017 29 11.2917 28.6222 9.64097 27.9377Z" fill="url(#paint0_linear_109_10162)"/>
<defs>
<linearGradient id="paint0_linear_109_10162" x1="26" y1="34" x2="1" y2="1" gradientUnits="userSpaceOnUse">
<stop stop-color="#F2DA18"/>
<stop offset="1" stop-color="#6CFFE9"/>
</linearGradient>
</defs>
</svg>
