<svg width="34" height="34" viewBox="0 0 34 34" fill="none" xmlns="http://www.w3.org/2000/svg">
<path fill-rule="evenodd" clip-rule="evenodd" d="M31.6627 23.0736C32.4385 21.2028 32.8667 19.1514 32.8667 17C32.8667 14.8486 32.4385 12.7972 31.6627 10.9264L32.7096 10.4923C33.5414 12.4983 34 14.697 34 17C34 19.303 33.5414 21.5017 32.7096 23.5077L31.6627 23.0736ZM23.0736 2.3373L23.5077 1.29041C21.5017 0.458558 19.303 0 17 0C14.697 0 12.4983 0.458558 10.4923 1.29041L10.9264 2.3373C12.7972 1.56151 14.8486 1.13333 17 1.13333C19.1514 1.13333 21.2028 1.56151 23.0736 2.3373ZM2.3373 10.9264C1.56151 12.7972 1.13333 14.8486 1.13333 17C1.13333 19.1514 1.56151 21.2028 2.3373 23.0736L1.29041 23.5077C0.458558 21.5017 0 19.303 0 17C0 14.697 0.458558 12.4983 1.29041 10.4923L2.3373 10.9264ZM10.9264 31.6627L10.4923 32.7096C12.4983 33.5414 14.697 34 17 34C19.303 34 21.5017 33.5414 23.5077 32.7096L23.0736 31.6627C21.2028 32.4385 19.1514 32.8667 17 32.8667C14.8486 32.8667 12.7972 32.4385 10.9264 31.6627Z" fill="#52D4FF"/>
</svg>
