<svg width="20" height="20" viewBox="0 0 20 20" fill="none" xmlns="http://www.w3.org/2000/svg">
<g clip-path="url(#clip0_616_16543)">
<mask id="mask0_616_16543" style="mask-type:luminance" maskUnits="userSpaceOnUse" x="0" y="0" width="20" height="20">
<path d="M20 0H0V20H20V0Z" fill="white"/>
</mask>
<g mask="url(#mask0_616_16543)">
<path fill-rule="evenodd" clip-rule="evenodd" d="M6.66667 15H4.50833C4.09778 15 3.80639 14.9708 3.63417 14.9125C3.11194 14.7363 2.76306 14.3875 2.5875 13.8658C2.52917 13.6941 2.5 13.4016 2.5 12.9883C2.5 12.8022 2.50722 12.6647 2.52167 12.5758C2.56389 12.3186 2.66111 12.0844 2.81333 11.8733C2.86611 11.7994 2.95806 11.6966 3.08917 11.565L3.33333 11.3225V8.33329C3.33333 6.49218 3.98417 4.92079 5.28583 3.61913C6.5875 2.31746 8.15889 1.66663 10 1.66663C11.8411 1.66663 13.4125 2.31746 14.7142 3.61913C16.0158 4.92079 16.6667 6.49218 16.6667 8.33329V11.3216L16.9108 11.5658C17.0425 11.6975 17.1347 11.8 17.1875 11.8733C17.3386 12.0844 17.4353 12.3186 17.4775 12.5758C17.4925 12.6658 17.5 12.8033 17.5 12.9883C17.5 13.4005 17.4708 13.693 17.4125 13.8658C17.2364 14.388 16.8878 14.7369 16.3667 14.9125C16.1944 14.9708 15.9028 15 15.4917 15H13.3333C13.3333 15.9205 13.0078 16.7061 12.3567 17.3566C11.7061 18.0077 10.9206 18.3333 10 18.3333C9.07944 18.3333 8.29389 18.0077 7.64333 17.3566C6.99278 16.7055 6.66722 15.92 6.66667 15ZM11.6667 15H8.33333C8.33333 15.46 8.49611 15.8527 8.82167 16.1783C9.14722 16.5038 9.54 16.6666 10 16.6666C10.46 16.6666 10.8528 16.5038 11.1783 16.1783C11.5039 15.8527 11.6667 15.46 11.6667 15ZM12.5 13.3333H4.50833C4.33778 13.3333 4.22833 13.3319 4.18 13.3291L4.16667 13.3333V12.845L4.2675 12.7441L4.5925 12.4191C4.86417 12.1475 5 11.8197 5 11.4358V8.33329C5 6.95274 5.48806 5.77413 6.46417 4.79746C7.44083 3.82135 8.61944 3.33329 10 3.33329C11.3806 3.33329 12.5592 3.82135 13.5358 4.79746C14.5125 5.77357 15.0006 6.95218 15 8.33329V11.435C15 11.8194 15.1361 12.1475 15.4083 12.4191L15.7325 12.7441C15.7842 12.7958 15.8169 12.8291 15.8308 12.8441L15.8333 12.8458V13.3333L15.82 13.3291C15.7717 13.3319 15.6622 13.3333 15.4917 13.3333H12.5ZM9.16667 5.83329C9.16667 5.77885 9.17222 5.72468 9.18333 5.67079C9.19333 5.6169 9.20889 5.56468 9.23 5.51413C9.25111 5.46413 9.27694 5.41607 9.3075 5.36996C9.3375 5.32496 9.37194 5.28302 9.41083 5.24413C9.44972 5.20524 9.49167 5.17079 9.53667 5.14079C9.58222 5.11024 9.63028 5.0844 9.68083 5.06329C9.73139 5.04218 9.78361 5.02635 9.8375 5.01579C9.89139 5.00524 9.94556 4.99996 10 4.99996C10.0544 4.99996 10.1086 5.00552 10.1625 5.01663C10.2164 5.02774 10.2686 5.04329 10.3192 5.06329C10.3697 5.08329 10.4178 5.10913 10.4633 5.14079C10.5083 5.17079 10.5503 5.20524 10.5892 5.24413C10.6281 5.28302 10.6625 5.32496 10.6925 5.36996C10.7231 5.41551 10.7489 5.46357 10.77 5.51413C10.7911 5.56468 10.8069 5.6169 10.8175 5.67079C10.8281 5.72468 10.8333 5.77885 10.8333 5.83329V7.49996H12.5C12.5544 7.49996 12.6086 7.50552 12.6625 7.51663C12.7164 7.52663 12.7686 7.54218 12.8192 7.56329C12.8692 7.5844 12.9172 7.61024 12.9633 7.64079C13.0089 7.67079 13.0508 7.70524 13.0892 7.74413C13.1281 7.78302 13.1625 7.82496 13.1925 7.86996C13.2231 7.91552 13.2489 7.96357 13.27 8.01413C13.2911 8.06468 13.3069 8.1169 13.3175 8.17079C13.3281 8.22468 13.3333 8.27885 13.3333 8.33329C13.3333 8.38774 13.3278 8.4419 13.3167 8.49579C13.3056 8.54968 13.29 8.6019 13.27 8.65246C13.25 8.70302 13.2244 8.75107 13.1933 8.79663C13.1628 8.84163 13.1281 8.88357 13.0892 8.92246C13.0503 8.96135 13.0083 8.99579 12.9633 9.02579C12.9178 9.05635 12.8697 9.08218 12.8192 9.10329C12.7686 9.1244 12.7164 9.14024 12.6625 9.15079C12.6086 9.16135 12.5544 9.16663 12.5 9.16663H10.8333V10.8333C10.8333 10.8877 10.8278 10.9419 10.8167 10.9958C10.8067 11.0497 10.7911 11.1019 10.77 11.1525C10.7489 11.2025 10.7231 11.2505 10.6925 11.2966C10.6625 11.3422 10.6281 11.3841 10.5892 11.4225C10.5503 11.4613 10.5083 11.4958 10.4633 11.5258C10.4178 11.5563 10.3697 11.5822 10.3192 11.6033C10.2686 11.6244 10.2164 11.6402 10.1625 11.6508C10.1086 11.6613 10.0544 11.6666 10 11.6666C9.94556 11.6666 9.89139 11.6611 9.8375 11.65C9.78361 11.6388 9.73139 11.6233 9.68083 11.6033C9.63028 11.5833 9.58222 11.5577 9.53667 11.5266C9.49167 11.4961 9.44972 11.4613 9.41083 11.4225C9.37194 11.3836 9.3375 11.3416 9.3075 11.2966C9.27694 11.2511 9.25111 11.203 9.23 11.1525C9.20889 11.1019 9.19306 11.0497 9.1825 10.9958C9.17194 10.9419 9.16667 10.8877 9.16667 10.8333V9.16663H7.5C7.44556 9.16663 7.39139 9.16107 7.3375 9.14996C7.28361 9.13996 7.23139 9.1244 7.18083 9.10329C7.13083 9.08218 7.08278 9.05635 7.03667 9.02579C6.99167 8.99579 6.94972 8.96135 6.91083 8.92246C6.87194 8.88357 6.8375 8.84163 6.8075 8.79663C6.77694 8.75107 6.75111 8.70302 6.73 8.65246C6.70889 8.6019 6.69306 8.54968 6.6825 8.49579C6.67194 8.4419 6.66667 8.38774 6.66667 8.33329C6.66667 8.27885 6.67222 8.22468 6.68333 8.17079C6.69444 8.1169 6.71 8.06468 6.73 8.01413C6.75 7.96357 6.77583 7.91552 6.8075 7.86996C6.8375 7.82496 6.87194 7.78302 6.91083 7.74413C6.94972 7.70524 6.99167 7.67079 7.03667 7.64079C7.08222 7.61024 7.13028 7.5844 7.18083 7.56329C7.23139 7.54218 7.28361 7.52635 7.3375 7.51579C7.39139 7.50524 7.44556 7.49996 7.5 7.49996H9.16667V5.83329Z" fill="white"/>
</g>
</g>
<defs>
<clipPath id="clip0_616_16543">
<rect width="20" height="20" fill="white"/>
</clipPath>
</defs>
</svg>
