<svg width="20" height="20" viewBox="0 0 20 20" fill="none" xmlns="http://www.w3.org/2000/svg">
<g opacity="0.6">
<path fill-rule="evenodd" clip-rule="evenodd" d="M6.66667 15H4.50833C4.09778 15 3.80639 14.9708 3.63417 14.9125C3.11194 14.7363 2.76306 14.3875 2.5875 13.8658C2.52917 13.6941 2.5 13.4016 2.5 12.9883C2.5 12.8022 2.50722 12.6647 2.52167 12.5758C2.56389 12.3186 2.66111 12.0844 2.81333 11.8733C2.86611 11.7994 2.95806 11.6966 3.08917 11.565L3.33333 11.3225V8.33329C3.33333 6.49218 3.98417 4.92079 5.28583 3.61913C6.5875 2.31746 8.15889 1.66663 10 1.66663C11.8411 1.66663 13.4125 2.31746 14.7142 3.61913C16.0158 4.92079 16.6667 6.49218 16.6667 8.33329V11.3216L16.9108 11.5658C17.0425 11.6975 17.1347 11.8 17.1875 11.8733C17.3386 12.0844 17.4353 12.3186 17.4775 12.5758C17.4925 12.6658 17.5 12.8033 17.5 12.9883C17.5 13.4005 17.4708 13.693 17.4125 13.8658C17.2364 14.388 16.8878 14.7369 16.3667 14.9125C16.1944 14.9708 15.9028 15 15.4917 15H13.3333C13.3333 15.9205 13.0078 16.7061 12.3567 17.3566C11.7061 18.0077 10.9206 18.3333 10 18.3333C9.07944 18.3333 8.29389 18.0077 7.64333 17.3566C6.99278 16.7055 6.66722 15.92 6.66667 15ZM11.6667 15H8.33333C8.33333 15.46 8.49611 15.8527 8.82167 16.1783C9.14722 16.5038 9.54 16.6666 10 16.6666C10.46 16.6666 10.8528 16.5038 11.1783 16.1783C11.5039 15.8527 11.6667 15.46 11.6667 15ZM12.5 13.3333H4.50833C4.33778 13.3333 4.22833 13.3319 4.18 13.3291L4.16667 13.3333V12.845L4.2675 12.7441L4.5925 12.4191C4.86417 12.1475 5 11.8197 5 11.4358V8.33329C5 6.95274 5.48806 5.77413 6.46417 4.79746C7.44083 3.82135 8.61944 3.33329 10 3.33329C11.3806 3.33329 12.5592 3.82135 13.5358 4.79746C14.5125 5.77357 15.0006 6.95218 15 8.33329V11.435C15 11.8194 15.1361 12.1475 15.4083 12.4191L15.7325 12.7441C15.7842 12.7958 15.8169 12.8291 15.8308 12.8441L15.8333 12.8458V13.3333L15.82 13.3291C15.7717 13.3319 15.6622 13.3333 15.4917 13.3333H12.5Z" fill="white"/>
<path fill-rule="evenodd" clip-rule="evenodd" d="M13.0656 7.10101C13.3781 7.41343 13.3781 7.91997 13.0656 8.23238L10.5656 10.7324C10.2532 11.0448 9.74669 11.0448 9.43427 10.7324L7.93427 9.23238C7.62185 8.91997 7.62185 8.41343 7.93427 8.10101C8.24669 7.78859 8.75322 7.78859 9.06564 8.10101L9.99995 9.03533L11.9343 7.10101C12.2467 6.78859 12.7532 6.78859 13.0656 7.10101Z" fill="white"/>
</g>
</svg>
