<svg width="20" height="20" viewBox="0 0 20 20" fill="none" xmlns="http://www.w3.org/2000/svg">
<g opacity="0.6">
<path fill-rule="evenodd" clip-rule="evenodd" d="M6.66667 15H4.50833C4.09778 15 3.80639 14.9708 3.63417 14.9125C3.11194 14.7363 2.76306 14.3875 2.5875 13.8658C2.52917 13.6941 2.5 13.4016 2.5 12.9883C2.5 12.8022 2.50722 12.6647 2.52167 12.5758C2.56389 12.3186 2.66111 12.0844 2.81333 11.8733C2.86611 11.7994 2.95806 11.6966 3.08917 11.565L3.33333 11.3225V8.33329C3.33333 6.49218 3.98417 4.92079 5.28583 3.61913C6.5875 2.31746 8.15889 1.66663 10 1.66663C11.8411 1.66663 13.4125 2.31746 14.7142 3.61913C16.0158 4.92079 16.6667 6.49218 16.6667 8.33329V11.3216L16.9108 11.5658C17.0425 11.6975 17.1347 11.8 17.1875 11.8733C17.3386 12.0844 17.4353 12.3186 17.4775 12.5758C17.4925 12.6658 17.5 12.8033 17.5 12.9883C17.5 13.4005 17.4708 13.693 17.4125 13.8658C17.2364 14.388 16.8878 14.7369 16.3667 14.9125C16.1944 14.9708 15.9028 15 15.4917 15H13.3333C13.3333 15.9205 13.0078 16.7061 12.3567 17.3566C11.7061 18.0077 10.9206 18.3333 10 18.3333C9.07944 18.3333 8.29389 18.0077 7.64333 17.3566C6.99278 16.7055 6.66722 15.92 6.66667 15ZM11.6667 15H8.33333C8.33333 15.46 8.49611 15.8527 8.82167 16.1783C9.14722 16.5038 9.54 16.6666 10 16.6666C10.46 16.6666 10.8528 16.5038 11.1783 16.1783C11.5039 15.8527 11.6667 15.46 11.6667 15ZM12.5 13.3333H4.50833C4.33778 13.3333 4.22833 13.3319 4.18 13.3291L4.16667 13.3333V12.845L4.2675 12.7441L4.5925 12.4191C4.86417 12.1475 5 11.8197 5 11.4358V8.33329C5 6.95274 5.48806 5.77413 6.46417 4.79746C7.44083 3.82135 8.61944 3.33329 10 3.33329C11.3806 3.33329 12.5592 3.82135 13.5358 4.79746C14.5125 5.77357 15.0006 6.95218 15 8.33329V11.435C15 11.8194 15.1361 12.1475 15.4083 12.4191L15.7325 12.7441C15.7842 12.7958 15.8169 12.8291 15.8308 12.8441L15.8333 12.8458V13.3333L15.82 13.3291C15.7717 13.3319 15.6622 13.3333 15.4917 13.3333H12.5Z" fill="white"/>
<path fill-rule="evenodd" clip-rule="evenodd" d="M11.3038 6.05918C11.3417 6.02126 11.3833 5.9874 11.4286 5.95761C11.4731 5.92704 11.5203 5.90151 11.5702 5.881C11.6197 5.86088 11.6712 5.8454 11.7246 5.83457C11.7768 5.82412 11.83 5.8189 11.8842 5.8189C11.9384 5.8189 11.9916 5.82412 12.0438 5.83457C12.0968 5.84502 12.1483 5.86049 12.1982 5.881C12.2481 5.90151 12.2955 5.92685 12.3404 5.95703C12.3853 5.98721 12.4267 6.02126 12.4646 6.05918C12.5025 6.09709 12.5363 6.13869 12.5661 6.18396C12.5959 6.22923 12.6215 6.27643 12.6427 6.32557C12.664 6.37471 12.6795 6.42617 12.6892 6.47995C12.6996 6.53218 12.7048 6.58538 12.7048 6.63955C12.7048 6.69372 12.6996 6.74692 12.6892 6.79916C12.6787 6.85216 12.6633 6.90362 12.6427 6.95353C12.6222 7.00345 12.5969 7.05084 12.5667 7.09573C12.5365 7.14061 12.5025 7.18201 12.4646 7.21993L11.3038 8.38068L12.4646 9.54143C12.5025 9.57935 12.5363 9.62094 12.5661 9.66621C12.5967 9.71071 12.6222 9.75791 12.6427 9.80783C12.6629 9.85735 12.6783 9.90881 12.6892 9.96221C12.7 10.0148 12.7052 10.068 12.7048 10.1218C12.7048 10.176 12.6996 10.2292 12.6892 10.2814C12.6787 10.3344 12.6633 10.3859 12.6427 10.4358C12.6222 10.4857 12.5969 10.5331 12.5667 10.578C12.5365 10.6229 12.5025 10.6643 12.4646 10.7022C12.4267 10.7401 12.3851 10.774 12.3398 10.8037C12.2945 10.8335 12.2473 10.8591 12.1982 10.8804C12.149 10.9016 12.0978 10.9173 12.0444 10.9274C11.9918 10.9374 11.9384 10.9425 11.8842 10.9425C11.83 10.9425 11.7768 10.9372 11.7246 10.9268C11.6716 10.9163 11.6201 10.9009 11.5702 10.8804C11.5203 10.8599 11.4729 10.8345 11.428 10.8043C11.3831 10.7742 11.3417 10.7401 11.3038 10.7022L10.1431 9.54143L8.98231 10.7022C8.9444 10.7401 8.9028 10.774 8.85753 10.8037C8.81304 10.8343 8.76583 10.8599 8.71592 10.8804C8.6664 10.9005 8.61494 10.916 8.56154 10.9268C8.50892 10.9376 8.45572 10.9428 8.40194 10.9425C8.34777 10.9425 8.29457 10.9372 8.24233 10.9268C8.18933 10.9163 8.13787 10.9009 8.08795 10.8804C8.03804 10.8599 7.99064 10.8345 7.94576 10.8043C7.90088 10.7742 7.85948 10.7401 7.82156 10.7022C7.78364 10.6643 7.74979 10.6227 7.72 10.5774C7.6902 10.5321 7.66467 10.4849 7.64339 10.4358C7.62211 10.3867 7.60644 10.3354 7.59638 10.282C7.58632 10.2294 7.58129 10.176 7.58129 10.1218C7.58129 10.0676 7.58651 10.0144 7.59696 9.9622C7.6074 9.9092 7.62288 9.85774 7.64339 9.80783C7.66389 9.75791 7.68924 9.71051 7.71942 9.66563C7.7496 9.62075 7.78364 9.57935 7.82156 9.54143L8.98231 8.38068L7.82156 7.21993C7.78364 7.18201 7.74979 7.14042 7.72 7.09515C7.68943 7.05065 7.66389 7.00345 7.64339 6.95353C7.62327 6.90401 7.60779 6.85255 7.59696 6.79916C7.58651 6.74692 7.58129 6.69372 7.58129 6.63955C7.58129 6.58538 7.58651 6.53218 7.59696 6.47995C7.6074 6.42694 7.62288 6.37548 7.64339 6.32557C7.66389 6.27566 7.68924 6.22826 7.71942 6.18338C7.7496 6.13849 7.78364 6.09709 7.82156 6.05918C7.85948 6.02126 7.90107 5.9874 7.94634 5.95761C7.99161 5.92782 8.03882 5.90228 8.08795 5.881C8.13709 5.85972 8.18855 5.84424 8.24233 5.83457C8.29457 5.82412 8.34777 5.8189 8.40194 5.8189C8.45611 5.8189 8.50931 5.82412 8.56154 5.83457C8.61455 5.84502 8.66601 5.86049 8.71592 5.881C8.76583 5.90151 8.81323 5.92685 8.85811 5.95703C8.903 5.98721 8.9444 6.02126 8.98231 6.05918L10.1431 7.21993L11.3038 6.05918Z" fill="white"/>
</g>
</svg>
