<svg width="28" height="28" viewBox="0 0 28 28" fill="none" xmlns="http://www.w3.org/2000/svg">
<path d="M28 3.5111V26.6169C28 27.3809 27.3809 28 26.6169 28H1.38308C0.619093 28 0 27.3809 0 26.6169V1.38308C0 0.619093 0.619093 0 1.38308 0H24.8586C25.2134 0 25.5498 0.156953 25.7781 0.428424L27.7186 2.73854C27.9005 2.95493 28 3.22844 28 3.5111Z" fill="#09CB6F"/>
<path d="M23.2745 0V6.74637C23.2745 7.25559 22.8617 7.66847 22.3524 7.66847H5.64775C5.13852 7.66847 4.72565 7.25574 4.72565 6.74637V0H23.2745Z" fill="#039C53"/>
<path d="M22.2217 0V6.52227C22.2217 6.64609 22.1214 6.74637 21.9976 6.74637H6.00229C5.87847 6.74637 5.7782 6.64609 5.7782 6.52227V0H22.2217Z" fill="#EFEFEF"/>
<path d="M24.8809 26.9705H3.11877V28.0001H24.8809V26.9705Z" fill="#1F5D40"/>
<path d="M24.8809 18.1114V26.9702H3.11877V18.1114C3.11877 17.5552 3.56972 17.1041 4.12604 17.1041H23.8738C24.4301 17.1041 24.8811 17.5552 24.8811 18.1114H24.8809Z" fill="#EFEFEF"/>
<path d="M9.15908 1.1217H7.19208V5.60911H9.15908V1.1217Z" fill="#039C53"/>
<path d="M22.7212 25.6027H5.2789C5.06672 25.6027 4.89465 25.4307 4.89465 25.2185C4.89465 25.0063 5.06672 24.8342 5.2789 24.8342H22.7212C22.9334 24.8342 23.1054 25.0063 23.1054 25.2185C23.1054 25.4307 22.9334 25.6027 22.7212 25.6027Z" fill="#1F5D40"/>
<path d="M22.7212 23.6511H5.2789C5.06672 23.6511 4.89465 23.479 4.89465 23.2668C4.89465 23.0546 5.06672 22.8826 5.2789 22.8826H22.7212C22.9334 22.8826 23.1054 23.0546 23.1054 23.2668C23.1054 23.479 22.9334 23.6511 22.7212 23.6511Z" fill="#1F5D40"/>
<path d="M22.7212 21.6992H5.2789C5.06672 21.6992 4.89465 21.5271 4.89465 21.3149C4.89465 21.1027 5.06672 20.9307 5.2789 20.9307H22.7212C22.9334 20.9307 23.1054 21.1027 23.1054 21.3149C23.1054 21.5271 22.9334 21.6992 22.7212 21.6992Z" fill="#1F5D40"/>
<path d="M22.7212 19.7475H5.2789C5.06672 19.7475 4.89465 19.5754 4.89465 19.3632C4.89465 19.1511 5.06672 18.979 5.2789 18.979H22.7212C22.9334 18.979 23.1054 19.1511 23.1054 19.3632C23.1054 19.5754 22.9334 19.7475 22.7212 19.7475Z" fill="#1F5D40"/>
</svg>
