<svg width="36" height="36" viewBox="0 0 36 36" fill="none" xmlns="http://www.w3.org/2000/svg">
<rect width="36" height="36" rx="8" fill="white"/>
<path d="M16.7361 9.59534C16.6468 9.68042 16.5951 9.74406 16.5307 9.78833C15.7915 10.2946 15.0839 10.8459 14.4958 11.5328C13.5667 12.6174 12.9967 13.8825 12.9672 15.3399C12.9262 17.3873 12.9531 19.4354 12.941 21.4835C12.9376 22.0327 12.9423 22.5888 12.8651 23.1304C12.6664 24.5304 11.2794 25.8944 9.93469 26.0418C8.02807 26.25 6.61959 25.0602 6.20873 23.6236C6.05365 23.0806 6.02344 22.4858 6.01673 21.9137C5.99457 19.9694 5.99592 18.025 6.01203 16.0807C6.0221 14.8896 6.22216 13.74 6.82637 12.6907C7.45609 11.5978 8.35703 10.8051 9.41843 10.2096C11.6305 8.96728 13.948 8.62905 16.3783 9.44248C16.4857 9.47845 16.5884 9.53171 16.7354 9.59534L16.7361 9.59534Z" fill="#20E789"/>
<path d="M26.9748 10.429C25.5637 9.52842 23.9202 8.98959 22.2613 9.01587C20.6756 9.04077 19.1147 9.58237 17.7808 10.4657C16.7355 11.1581 15.8043 12.0842 15.282 13.2456C14.4469 15.1035 14.7543 17.2581 14.7422 19.3048C14.7328 20.8487 14.516 22.4797 15.0141 23.9724C15.4069 25.1496 16.8986 25.9817 18.0473 26.0329C19.1792 26.0834 20.3238 25.5066 20.9623 24.543C21.5792 23.6127 21.7054 22.4278 21.6766 21.3011C21.647 20.1743 21.4812 19.0468 21.5886 17.9249C21.5967 17.6365 21.6041 17.3473 21.6121 17.0589C21.6363 16.1562 21.6625 15.2411 21.9176 14.3772C22.3043 13.0678 23.2287 11.9369 24.4163 11.3227C25.2629 10.8848 26.2108 10.7084 27.1433 10.5376C27.0876 10.5002 27.0312 10.4636 26.9748 10.4276L26.9748 10.429Z" fill="#09CB6F"/>
<path d="M30.168 15.5798C30.1452 15.3315 30.1123 15.0839 30.0626 14.839C29.9324 14.1937 29.6793 13.5608 29.2443 13.0773C28.7414 12.5191 28.0137 12.1954 27.2759 12.1504C26.5381 12.1062 25.7949 12.3303 25.1685 12.7363C24.5811 13.1167 24.0857 13.6652 23.8171 14.3244C23.5365 15.0133 23.5137 15.7804 23.4915 16.5268C23.472 17.1956 23.4499 17.8645 23.4392 18.5334C23.4224 19.5592 23.4318 20.5856 23.4412 21.6114C23.4506 22.6151 23.4271 23.7681 24.0514 24.5982C24.6207 25.3549 25.4727 25.902 26.4025 26.0147C27.0798 26.0971 27.774 25.9532 28.3917 25.6551C28.9744 25.3735 29.5027 24.9447 29.8371 24.3782C30.3661 23.4811 30.3574 22.3661 30.3325 21.3161C30.2969 19.8123 30.2607 18.3086 30.2251 16.8055C30.215 16.3967 30.2056 15.9859 30.168 15.5792L30.168 15.5798Z" fill="#09CB6F"/>
</svg>
