<svg width="131" height="20" viewBox="0 0 131 20" fill="none" xmlns="http://www.w3.org/2000/svg">
<path d="M13.3904 0.697715C13.2845 0.797423 13.2233 0.872001 13.1469 0.923882C12.2708 1.51727 11.4322 2.16334 10.7352 2.9683C9.63392 4.23937 8.95838 5.72202 8.92337 7.43003C8.87483 9.82951 8.90666 12.2298 8.89234 14.6301C8.88836 15.2737 8.89393 15.9255 8.80242 16.5602C8.5669 18.2009 6.92301 19.7995 5.32924 19.9722C3.06948 20.2162 1.40013 18.8219 0.913164 17.1382C0.72936 16.5018 0.693555 15.8047 0.685598 15.1343C0.65934 12.8556 0.660931 10.5769 0.680027 8.29822C0.691963 6.90231 0.929078 5.55503 1.6452 4.3253C2.39156 3.0445 3.45937 2.11551 4.71735 1.41756C7.33915 -0.0383406 10.0859 -0.434741 12.9663 0.518565C13.0936 0.560718 13.2153 0.623137 13.3896 0.697715L13.3904 0.697715Z" fill="white"/>
<path d="M25.5251 1.67478C23.8525 0.619335 21.9047 -0.0121484 19.9385 0.0186557C18.0591 0.0478385 16.2091 0.682565 14.6281 1.71774C13.3892 2.52919 12.2856 3.61463 11.6665 4.97568C10.6767 7.15304 11.0411 9.67817 11.0268 12.0768C11.0157 13.8862 10.7587 15.7976 11.3491 17.547C11.8145 18.9267 13.5826 19.9019 14.944 19.9619C16.2855 20.021 17.6422 19.345 18.3989 18.2158C19.1301 17.1255 19.2797 15.7368 19.2455 14.4163C19.2105 13.0958 19.0139 11.7745 19.1413 10.4596C19.1508 10.1216 19.1596 9.78274 19.1691 9.44471C19.1977 8.38683 19.2288 7.31436 19.5311 6.30188C19.9895 4.76735 21.0851 3.44196 22.4927 2.72212C23.4961 2.20899 24.6196 2.00228 25.7248 1.80205C25.6587 1.75828 25.5919 1.71531 25.5251 1.67316L25.5251 1.67478Z" fill="white"/>
<path d="M29.3099 7.71115C29.2828 7.42013 29.2438 7.12992 29.185 6.84296C29.0306 6.08664 28.7306 5.34491 28.215 4.77827C27.619 4.12409 26.7565 3.74471 25.8821 3.69202C25.0076 3.64014 24.1268 3.90279 23.3844 4.37863C22.6882 4.82448 22.1009 5.46731 21.7827 6.23985C21.4501 7.04724 21.423 7.94623 21.3968 8.82091C21.3737 9.60479 21.3474 10.3887 21.3347 11.1726C21.3148 12.3747 21.3259 13.5777 21.3371 14.7799C21.3482 15.9561 21.3204 17.3074 22.0604 18.2802C22.7351 19.167 23.7448 19.8082 24.8469 19.9404C25.6497 20.0368 26.4725 19.8682 27.2045 19.5188C27.8952 19.1889 28.5214 18.6863 28.9176 18.0224C29.5446 16.971 29.5343 15.6643 29.5048 14.4337C29.4627 12.6714 29.4197 10.9091 29.3775 9.14759C29.3656 8.66851 29.3544 8.18699 29.3099 7.71034L29.3099 7.71115Z" fill="white"/>
<path d="M38.6706 17.0522C37.8448 17.0522 37.0343 17.0522 36.2228 17.0522C35.483 17.0522 35.5851 17.1315 35.5851 16.4043C35.5833 12.749 35.5833 9.0936 35.5833 5.43916C35.5833 5.37255 35.5833 5.30594 35.5833 5.2001C35.7266 5.18915 35.8547 5.1709 35.9828 5.1709C39.9496 5.17637 43.9164 5.16816 47.8823 5.20375C48.5863 5.21014 49.3154 5.30686 49.9853 5.51855C51.4049 5.96657 52.1179 7.07249 52.1761 8.53426C52.2755 11.0153 52.2827 13.5008 52.3265 15.9846C52.3328 16.324 52.3265 16.6635 52.3265 17.044L49.2204 17.044C49.2142 16.9317 49.2016 16.8104 49.2016 16.6899C49.1864 14.2719 49.1515 11.8547 49.1685 9.43669C49.1766 8.33717 48.7081 7.84717 47.6253 7.69935C47.044 7.61997 46.4475 7.65191 45.8591 7.62271C45.5438 7.60719 45.4381 7.7322 45.439 8.06069C45.4453 10.5353 45.4345 13.0099 45.4301 15.4845C45.4292 15.9828 45.4301 16.4819 45.4301 17.0321L42.3401 17.0321C42.3347 16.918 42.324 16.7857 42.324 16.6534C42.3213 13.8384 42.3186 11.0235 42.3168 8.2076C42.3168 7.67654 42.3141 7.65738 41.7821 7.64734C40.8802 7.63 39.9774 7.64278 39.0754 7.62271C38.8032 7.61632 38.7163 7.74041 38.7181 7.98039C38.7208 8.28607 38.7387 8.59266 38.7369 8.89834C38.7252 11.5764 38.7109 14.2554 38.6966 16.9335C38.6966 16.9554 38.6867 16.9773 38.6697 17.0522L38.6706 17.0522Z" fill="white"/>
<path d="M83.0607 8.93427C83.0607 6.36931 83.0661 3.80436 83.0545 1.23941C83.0527 0.916396 83.1396 0.814199 83.4647 0.823324C84.2663 0.846136 85.0688 0.834276 85.8704 0.822413C86.1588 0.817851 86.2501 0.918222 86.2385 1.22116C86.1946 2.43383 86.1821 3.64742 86.1498 4.86009C86.1427 5.14204 86.3084 5.17307 86.5162 5.17398C87.3849 5.17763 88.2537 5.17033 89.1225 5.18858C90.0038 5.20774 90.8797 5.28713 91.7154 5.60102C93.3401 6.21055 94.3307 7.39858 94.7167 9.10307C95.0167 10.4271 94.9908 11.752 94.6567 13.0741C94.2026 14.869 92.3611 16.693 90.3916 16.8874C88.0334 17.12 85.6742 17.0388 83.3151 17.0589C83.033 17.0616 83.0607 16.8819 83.0607 16.6976C83.0607 15.0177 83.0607 13.3378 83.0598 11.6589C83.0598 10.751 83.0598 9.84308 83.0598 8.93518L83.0607 8.93427ZM86.2089 10.521C86.2179 10.928 86.2251 11.3359 86.2313 11.7428C86.2403 12.335 86.2457 12.9272 86.2484 13.5203C86.251 14.0696 86.0755 14.5843 86.7589 14.5843C87.29 14.5733 87.8211 14.5624 88.3522 14.5523C88.9514 14.5405 89.5703 14.5241 90.1149 14.2695C90.7167 13.9893 91.1699 13.4355 91.4261 12.8141C91.6822 12.1927 91.7548 11.5056 91.736 10.8322C91.71 9.87685 91.4601 8.84758 90.7239 8.25448C90.0074 7.67688 89.0177 7.6486 88.105 7.64677C87.5784 7.64495 87.0517 7.64403 86.5242 7.64221C86.4606 7.64221 86.3943 7.64221 86.3361 7.66684C86.1561 7.74349 86.1346 7.99077 86.1418 8.18878C86.1695 8.96529 86.1919 9.74271 86.2089 10.5201L86.2089 10.521Z" fill="white"/>
<path d="M97.6804 7.62075C97.6804 6.84971 97.6741 6.11517 97.6831 5.38155C97.6866 5.07678 97.9401 5.14431 98.1103 5.14431C98.9343 5.14248 99.7583 5.15069 100.583 5.16529C102.042 5.19267 103.502 5.19449 104.958 5.26749C106.777 5.35782 108.185 6.60791 108.537 8.3781C108.591 8.65458 108.622 8.94018 108.627 9.22213C108.661 11.7862 108.687 14.3511 108.715 16.9152C108.715 16.958 108.7 17.0009 108.687 17.0794C108.472 17.0794 108.263 17.0794 108.056 17.0794C105.549 17.0767 103.042 17.084 100.536 17.0639C100.074 17.0602 99.5944 17.0073 99.1546 16.8732C97.5147 16.3713 96.6907 15.0628 96.8456 13.3246C96.9441 12.2187 97.2576 11.2487 98.2249 10.5908C98.8787 10.1465 99.5944 9.92291 100.359 9.90283C101.985 9.86086 103.61 9.8563 105.237 9.84261C105.618 9.83987 105.674 9.78695 105.593 9.4174C105.582 9.36265 105.556 9.31064 105.544 9.25498C105.279 8.00855 105.032 7.74941 103.593 7.69192C101.735 7.61801 99.8738 7.639 98.0135 7.61892C97.9061 7.61801 97.7977 7.61892 97.6822 7.61892L97.6804 7.62075ZM103.11 12.3729C103.11 12.3729 103.11 12.382 103.11 12.3857C102.408 12.3857 101.706 12.3756 101.005 12.393C100.826 12.3975 100.624 12.4523 100.474 12.549C100.074 12.8072 99.9069 13.3301 100.033 13.8082C100.148 14.2407 100.405 14.4278 100.972 14.4588C101.749 14.5017 102.528 14.5382 103.306 14.5619C103.962 14.582 104.62 14.5847 105.277 14.5856C105.447 14.5856 105.646 14.613 105.632 14.3174C105.606 13.7854 105.588 13.2516 105.599 12.7196C105.604 12.4404 105.499 12.3665 105.248 12.3702C104.535 12.3802 103.822 12.3738 103.11 12.3738L103.11 12.3729Z" fill="white"/>
<path d="M55.6646 7.63135L55.6646 5.21239C55.7793 5.20144 55.8751 5.1841 55.9718 5.1841C58.0551 5.18593 60.1384 5.1768 62.2217 5.20053C62.9892 5.20965 63.7434 5.30637 64.4626 5.65402C65.6887 6.2453 66.3873 7.22803 66.5557 8.56206C66.6784 9.53567 66.6901 10.5275 66.7053 11.5121C66.7313 13.2257 66.7133 14.9402 66.7313 16.6538C66.7348 16.9659 66.648 17.0562 66.3381 17.0553C63.6869 17.0526 61.0349 17.0754 58.3838 17.0672C57.9566 17.0654 57.524 16.9686 57.103 16.8747C55.7721 16.5799 54.8478 15.1291 54.8209 13.8243C54.7833 11.9811 55.5312 10.6744 57.0959 10.1516C57.7372 9.93715 58.451 9.89427 59.1344 9.87237C60.3919 9.83222 61.6511 9.86598 62.9104 9.8669C63.0546 9.8669 63.2087 9.88423 63.3403 9.83952C63.4227 9.81123 63.5329 9.67528 63.5248 9.59863C63.4953 9.29569 63.463 8.98271 63.3609 8.70076C63.1639 8.15419 62.802 7.76548 62.1841 7.75179C60.1357 7.70708 58.0874 7.67058 56.039 7.63135C55.919 7.62861 55.7999 7.63135 55.6646 7.63135ZM61.1138 12.357C60.4814 12.3652 59.85 12.3744 59.2177 12.3844C59.0036 12.388 58.7824 12.3926 58.5862 12.4802C58.3166 12.6007 58.1277 12.8698 58.0569 13.1609C57.8697 13.9219 58.2369 14.4384 58.9821 14.4603C60.4187 14.5013 61.8562 14.5424 63.2938 14.5834C63.3591 14.5853 63.429 14.5853 63.4818 14.546C63.5535 14.4913 63.5607 14.3873 63.5616 14.296C63.5669 13.7887 63.5732 13.2823 63.5786 12.7749C63.5804 12.6253 63.5669 12.4483 63.4415 12.3716C63.3762 12.3324 63.2956 12.3315 63.2194 12.3324C62.5181 12.3388 61.8159 12.347 61.1146 12.3561L61.1138 12.357Z" fill="white"/>
<path d="M79.9193 5.20619L79.9193 7.61694C79.2099 7.61694 78.5319 7.61055 77.8539 7.61785C76.5176 7.63245 75.1804 7.65161 73.8441 7.67442C73.6784 7.67716 73.5118 7.70545 73.3461 7.72826C72.7541 7.81038 72.5275 8.01112 72.4585 8.51024C72.3797 9.08236 72.6018 9.59791 73.0792 9.77493C73.4267 9.90359 73.8083 9.98388 74.1773 9.99757C75.1446 10.0341 76.1146 10.0058 77.0827 10.0359C77.8548 10.0596 78.5803 10.3133 79.2233 10.7312C79.9658 11.2139 80.385 11.9238 80.4369 12.8472C80.4979 13.9239 80.3133 14.9213 79.6506 15.7954C79.0326 16.6111 78.1933 16.9898 77.2162 17.0081C74.832 17.0528 72.4478 17.0583 70.0627 17.0765C69.3524 17.082 69.3533 17.0783 69.356 16.363C69.3578 15.8976 69.373 15.4313 69.3515 14.9669C69.3363 14.6466 69.4617 14.559 69.759 14.5617C71.4527 14.5763 73.1464 14.5773 74.8409 14.5782C75.398 14.5782 75.9551 14.5727 76.5113 14.5572C76.9 14.5462 77.2323 14.3729 77.3371 13.986C77.458 13.538 77.415 13.0845 77.0693 12.7158C76.8355 12.4667 76.5364 12.3965 76.2184 12.3882C75.4061 12.3663 74.5911 12.3837 73.7805 12.328C73.029 12.2769 72.2776 12.1784 71.5333 12.0543C70.2481 11.8408 69.3802 10.3689 69.2216 9.40903C69.0631 8.4482 69.2216 7.52843 69.7232 6.69352C70.2561 5.80568 71.081 5.38047 72.0707 5.26368C72.4791 5.21532 72.8911 5.17973 73.3013 5.17882C75.3962 5.17426 77.4921 5.18247 79.587 5.18794C79.6953 5.18794 79.8037 5.20072 79.9193 5.20711L79.9193 5.20619Z" fill="white"/>
<path d="M130.66 5.23126L130.66 7.62558C130.511 7.62558 130.394 7.62558 130.277 7.62558C128.896 7.62558 127.514 7.62284 126.133 7.63196C125.878 7.63379 125.626 7.70131 125.371 7.71682C124.646 7.76154 124.297 8.22963 124.096 8.87018C124.039 9.05359 123.976 9.23609 123.925 9.42132C123.832 9.76167 123.876 9.82828 124.219 9.83284C125.545 9.85018 126.871 9.86386 128.195 9.8739C128.995 9.87938 129.796 9.87481 130.635 9.87481C130.635 10.5409 130.634 11.1723 130.635 11.8038C130.637 12.3421 130.638 12.3449 130.125 12.343C128.153 12.3367 126.182 12.3294 124.211 12.323C123.816 12.3211 123.775 12.364 123.899 12.75C124.091 13.3541 124.247 14.011 124.9 14.2757C125.264 14.4235 125.673 14.5047 126.065 14.5165C127.468 14.5594 128.872 14.5667 130.276 14.5722C130.571 14.5731 130.683 14.6443 130.664 14.9746C130.63 15.5513 130.643 16.1316 130.656 16.7101C130.661 16.9501 130.608 17.0532 130.345 17.0505C128.874 17.0313 127.404 17.0559 125.934 17.0122C124.836 16.9793 123.759 16.784 122.824 16.1316C121.345 15.0996 120.616 13.6324 120.448 11.8421C120.346 10.7553 120.419 9.68502 120.778 8.65484C121.427 6.79067 122.689 5.62088 124.638 5.33984C126.608 5.05515 128.595 5.17468 130.576 5.19841C130.606 5.19841 130.636 5.22122 130.663 5.23217L130.66 5.23126Z" fill="white"/>
<path d="M110.679 7.62057L110.679 5.18063C111.269 5.18063 111.834 5.1715 112.397 5.18519C112.636 5.19067 112.713 5.14322 112.708 4.86583C112.682 3.61757 112.691 2.3684 112.689 1.11923C112.689 1.03163 112.705 0.944033 112.716 0.835449L115.795 0.835449C115.801 0.95772 115.813 1.0663 115.812 1.17489C115.81 2.38938 115.812 3.60479 115.801 4.81929C115.799 5.04467 115.85 5.15143 116.092 5.15234C116.86 5.15417 117.629 5.1715 118.397 5.18428C118.55 5.18702 118.702 5.19979 118.865 5.20892C118.865 5.9763 118.867 6.71084 118.863 7.44629C118.861 7.70452 118.661 7.63791 118.518 7.637C117.738 7.637 116.958 7.63974 116.179 7.62149C115.884 7.6151 115.792 7.72824 115.796 8.02115C115.823 9.65538 115.821 11.2905 115.863 12.9248C115.877 13.4294 115.951 13.9568 116.412 14.2871C116.536 14.3756 116.702 14.4349 116.853 14.4486C117.429 14.5015 118.007 14.5371 118.585 14.5626C118.793 14.5718 118.883 14.6347 118.876 14.8619C118.859 15.5089 118.87 16.1567 118.847 16.8028C118.843 16.8949 118.715 17.0619 118.647 17.0601C117.47 17.0382 116.287 17.155 115.123 16.8411C113.581 16.4259 112.937 15.4587 112.836 14.0225C112.704 12.1574 112.733 10.2804 112.694 8.40894C112.674 7.46819 112.809 7.63609 111.914 7.62149C111.506 7.6151 111.098 7.62057 110.677 7.62057L110.679 7.62057Z" fill="white"/>
</svg>
