<svg width="130" height="20" viewBox="0 0 130 20" fill="none" xmlns="http://www.w3.org/2000/svg">
<path d="M12.7246 0.697715C12.6188 0.797423 12.5575 0.872001 12.4811 0.923882C11.6051 1.51727 10.7664 2.16334 10.0694 2.9683C8.96815 4.23937 8.29261 5.72202 8.2576 7.43003C8.20906 9.82951 8.24089 12.2298 8.22657 14.6301C8.22259 15.2737 8.22816 15.9255 8.13665 16.5602C7.90113 18.2009 6.25723 19.7995 4.66347 19.9722C2.40371 20.2162 0.734355 18.8219 0.247393 17.1382C0.0635884 16.5018 0.0277835 15.8047 0.0198266 15.1343C-0.0064313 12.8556 -0.0048406 10.5769 0.0142559 8.29822C0.0261911 6.90231 0.263307 5.55503 0.979427 4.3253C1.72578 3.0445 2.7936 2.11551 4.05158 1.41756C6.67338 -0.0383406 9.4201 -0.434741 12.3005 0.518565C12.4278 0.560718 12.5495 0.623137 12.7238 0.697715L12.7246 0.697715Z" fill="#00FF86"/>
<path d="M24.8593 1.67478C23.1868 0.619335 21.2389 -0.0121484 19.2728 0.0186557C17.3933 0.0478385 15.5434 0.682565 13.9623 1.71774C12.7234 2.52919 11.6198 3.61463 11.0008 4.97568C10.0109 7.15304 10.3754 9.67817 10.361 12.0768C10.3499 13.8862 10.0929 15.7976 10.6833 17.547C11.1488 18.9267 12.9168 19.9019 14.2782 19.9619C15.6198 20.021 16.9764 19.345 17.7331 18.2158C18.4643 17.1255 18.6139 15.7368 18.5797 14.4163C18.5447 13.0958 18.3482 11.7745 18.4755 10.4596C18.485 10.1216 18.4938 9.78274 18.5033 9.44471C18.532 8.38683 18.563 7.31436 18.8654 6.30188C19.3237 4.76735 20.4194 3.44196 21.8269 2.72212C22.8303 2.20899 23.9538 2.00228 25.059 1.80205C24.993 1.75828 24.9261 1.71531 24.8593 1.67316L24.8593 1.67478Z" fill="#00FF86"/>
<path d="M28.6444 7.71127C28.6173 7.42025 28.5783 7.13004 28.5194 6.84308C28.3651 6.08676 28.0651 5.34503 27.5495 4.77839C26.9535 4.12421 26.091 3.74484 25.2165 3.69215C24.3421 3.64026 23.4612 3.90291 22.7189 4.37875C22.0226 4.8246 21.4354 5.46743 21.1171 6.23997C20.7845 7.04736 20.7575 7.94635 20.7312 8.82103C20.7082 9.60491 20.6819 10.3888 20.6692 11.1727C20.6493 12.3748 20.6604 13.5778 20.6716 14.78C20.6827 15.9562 20.6548 17.3076 21.3948 18.2803C22.0696 19.1672 23.0793 19.8084 24.1813 19.9405C24.9842 20.037 25.8069 19.8683 26.539 19.519C27.2296 19.189 27.8558 18.6864 28.2521 18.0225C28.8791 16.9711 28.8687 15.6644 28.8393 14.4339C28.7971 12.6715 28.7542 10.9092 28.712 9.14771C28.7001 8.66863 28.6889 8.18711 28.6444 7.71046L28.6444 7.71127Z" fill="#00FF86"/>
<path d="M38.0043 17.0522C37.1786 17.0522 36.368 17.0522 35.5565 17.0522C34.8167 17.0522 34.9188 17.1315 34.9188 16.4043C34.917 12.749 34.917 9.0936 34.917 5.43916C34.917 5.37255 34.917 5.30594 34.917 5.2001C35.0604 5.18915 35.1884 5.1709 35.3165 5.1709C39.2833 5.17637 43.2502 5.16816 47.2161 5.20375C47.9201 5.21014 48.6491 5.30686 49.3191 5.51855C50.7387 5.96657 51.4516 7.07249 51.5098 8.53426C51.6092 11.0153 51.6164 13.5008 51.6603 15.9846C51.6666 16.324 51.6603 16.6635 51.6603 17.044L48.5542 17.044C48.5479 16.9317 48.5354 16.8104 48.5354 16.6899C48.5201 14.2719 48.4852 11.8547 48.5022 9.43669C48.5103 8.33717 48.0419 7.84717 46.959 7.69935C46.3778 7.61997 45.7813 7.65191 45.1928 7.62271C44.8775 7.60719 44.7719 7.7322 44.7728 8.06069C44.779 10.5353 44.7683 13.0099 44.7638 15.4845C44.7629 15.9828 44.7638 16.4819 44.7638 17.0321L41.6738 17.0321C41.6684 16.918 41.6577 16.7857 41.6577 16.6534C41.655 13.8384 41.6523 11.0235 41.6505 8.2076C41.6505 7.67654 41.6478 7.65738 41.1158 7.64734C40.2139 7.63 39.3111 7.64278 38.4092 7.62271C38.1369 7.61632 38.05 7.74041 38.0518 7.98039C38.0545 8.28607 38.0724 8.59266 38.0706 8.89834C38.059 11.5764 38.0447 14.2554 38.0303 16.9335C38.0303 16.9554 38.0205 16.9773 38.0035 17.0522L38.0043 17.0522Z" fill="#00FF86"/>
<path d="M82.3945 8.93439C82.3945 6.36944 82.3999 3.80448 82.3882 1.23953C82.3864 0.916518 82.4733 0.814321 82.7984 0.823446C83.6 0.846258 84.4025 0.834398 85.2041 0.822535C85.4925 0.817973 85.5839 0.918344 85.5722 1.22128C85.5283 2.43396 85.5158 3.64754 85.4836 4.86021C85.4764 5.14217 85.6421 5.17319 85.8499 5.1741C86.7187 5.17775 87.5874 5.17045 88.4562 5.1887C89.3375 5.20786 90.2135 5.28725 91.0491 5.60114C92.6738 6.21067 93.6644 7.3987 94.0504 9.1032C94.3505 10.4272 94.3245 11.7521 93.9904 13.0743C93.5363 14.8691 91.6949 16.6931 89.7254 16.8875C87.3671 17.1202 85.008 17.0389 82.6488 17.059C82.3667 17.0618 82.3945 16.882 82.3945 16.6977C82.3945 15.0178 82.3945 13.338 82.3936 11.659C82.3936 10.7511 82.3936 9.84321 82.3936 8.9353L82.3945 8.93439ZM85.5427 10.5212C85.5516 10.9281 85.5588 11.336 85.5651 11.743C85.574 12.3352 85.5794 12.9274 85.5821 13.5205C85.5848 14.0698 85.4092 14.5844 86.0926 14.5844C86.6237 14.5734 87.1548 14.5625 87.686 14.5525C88.2852 14.5406 88.904 14.5242 89.4486 14.2696C90.0505 13.9895 90.5037 13.4356 90.7598 12.8142C91.016 12.1928 91.0885 11.5057 91.0697 10.8323C91.0437 9.87697 90.7939 8.8477 90.0576 8.2546C89.3411 7.677 88.3514 7.64872 87.4388 7.64689C86.9121 7.64507 86.3855 7.64416 85.8579 7.64233C85.7944 7.64233 85.7281 7.64233 85.6699 7.66697C85.4898 7.74361 85.4683 7.99089 85.4755 8.1889C85.5033 8.96541 85.5257 9.74284 85.5427 10.5203L85.5427 10.5212Z" fill="#00FF86"/>
<path d="M97.0139 7.62075C97.0139 6.84971 97.0076 6.11517 97.0165 5.38155C97.0201 5.07678 97.2736 5.14431 97.4438 5.14431C98.2678 5.14248 99.0918 5.15069 99.9167 5.16529C101.376 5.19267 102.836 5.19449 104.292 5.26749C106.11 5.35782 107.519 6.60791 107.87 8.3781C107.925 8.65458 107.956 8.94018 107.96 9.22213C107.995 11.7862 108.02 14.3511 108.048 16.9152C108.048 16.958 108.034 17.0009 108.02 17.0794C107.806 17.0794 107.597 17.0794 107.389 17.0794C104.882 17.0767 102.375 17.084 99.8692 17.0639C99.407 17.0602 98.9279 17.0073 98.4881 16.8732C96.8482 16.3713 96.0242 15.0628 96.1791 13.3246C96.2776 12.2187 96.5911 11.2487 97.5584 10.5908C98.2122 10.1465 98.9279 9.92291 99.6927 9.90283C101.318 9.86086 102.944 9.8563 104.57 9.84261C104.952 9.83987 105.008 9.78695 104.927 9.4174C104.915 9.36265 104.889 9.31064 104.878 9.25498C104.613 8.00855 104.365 7.74941 102.927 7.69192C101.068 7.61801 99.2073 7.639 97.347 7.61892C97.2396 7.61801 97.1312 7.61892 97.0157 7.61892L97.0139 7.62075ZM102.443 12.3729C102.443 12.3729 102.443 12.382 102.443 12.3857C101.742 12.3857 101.04 12.3756 100.339 12.393C100.159 12.3975 99.9579 12.4523 99.8074 12.549C99.407 12.8072 99.2404 13.3301 99.3667 13.8082C99.4814 14.2407 99.7384 14.4278 100.305 14.4588C101.083 14.5017 101.861 14.5382 102.639 14.5619C103.296 14.582 103.953 14.5847 104.611 14.5856C104.781 14.5856 104.98 14.613 104.965 14.3174C104.939 13.7854 104.922 13.2516 104.932 12.7196C104.938 12.4404 104.833 12.3665 104.581 12.3702C103.868 12.3802 103.155 12.3738 102.443 12.3738L102.443 12.3729Z" fill="#00FF86"/>
<path d="M54.9984 7.63159L54.9984 5.21263C55.113 5.20168 55.2088 5.18435 55.3056 5.18435C57.3889 5.18617 59.4721 5.17705 61.5554 5.20077C62.323 5.20989 63.0771 5.30662 63.7963 5.65427C65.0225 6.24555 65.7211 7.22828 65.8894 8.56231C66.0122 9.53591 66.0238 10.5278 66.039 11.5123C66.065 13.2259 66.0471 14.9405 66.065 16.6541C66.0686 16.9662 65.9817 17.0565 65.6718 17.0556C63.0207 17.0528 60.3687 17.0756 57.7176 17.0674C57.2903 17.0656 56.8577 16.9689 56.4368 16.8749C55.1058 16.5802 54.1815 15.1293 54.1547 13.8245C54.1171 11.9813 54.8649 10.6747 56.4296 10.1518C57.0709 9.9374 57.7847 9.89451 58.4681 9.87261C59.7256 9.83247 60.9849 9.86623 62.2442 9.86714C62.3884 9.86714 62.5424 9.88447 62.6741 9.83976C62.7565 9.81148 62.8666 9.67552 62.8586 9.59887C62.829 9.29593 62.7968 8.98296 62.6947 8.701C62.4976 8.15443 62.1358 7.76572 61.5178 7.75204C59.4694 7.70732 57.4211 7.67083 55.3728 7.63159C55.2527 7.62885 55.1336 7.63159 54.9984 7.63159ZM60.4475 12.3573C59.8152 12.3655 59.1837 12.3746 58.5514 12.3846C58.3373 12.3883 58.1161 12.3929 57.92 12.4805C57.6504 12.6009 57.4614 12.8701 57.3906 13.1612C57.2035 13.9222 57.5707 14.4386 58.3159 14.4605C59.7525 14.5016 61.19 14.5426 62.6275 14.5837C62.6929 14.5855 62.7627 14.5855 62.8156 14.5463C62.8872 14.4915 62.8944 14.3875 62.8953 14.2963C62.9007 13.7889 62.9069 13.2825 62.9123 12.7752C62.9141 12.6255 62.9007 12.4485 62.7753 12.3719C62.7099 12.3326 62.6293 12.3317 62.5532 12.3326C61.8519 12.339 61.1497 12.3472 60.4484 12.3564L60.4475 12.3573Z" fill="#00FF86"/>
<path d="M79.2532 5.20631L79.2532 7.61706C78.5439 7.61706 77.8659 7.61067 77.1879 7.61797C75.8516 7.63257 74.5144 7.65173 73.1781 7.67454C73.0124 7.67728 72.8458 7.70557 72.6801 7.72838C72.0881 7.8105 71.8615 8.01125 71.7925 8.51037C71.7137 9.08248 71.9358 9.59803 72.4132 9.77505C72.7607 9.90371 73.1422 9.98401 73.5112 9.99769C74.4785 10.0342 75.4485 10.0059 76.4167 10.036C77.1888 10.0597 77.9143 10.3134 78.5573 10.7313C79.2998 11.214 79.719 11.9239 79.7709 12.8473C79.8318 13.924 79.6473 14.9214 78.9846 15.7955C78.3666 16.6113 77.5273 16.9899 76.5502 17.0082C74.166 17.0529 71.7818 17.0584 69.3966 17.0766C68.6864 17.0821 68.6873 17.0785 68.69 16.3631C68.6918 15.8977 68.707 15.4314 68.6855 14.967C68.6703 14.6467 68.7957 14.5591 69.093 14.5619C70.7867 14.5765 72.4804 14.5774 74.1749 14.5783C74.732 14.5783 75.2891 14.5728 75.8453 14.5573C76.234 14.5464 76.5663 14.373 76.6711 13.9861C76.792 13.5381 76.749 13.0846 76.4033 12.7159C76.1695 12.4668 75.8704 12.3966 75.5524 12.3884C74.7401 12.3665 73.925 12.3838 73.1145 12.3281C72.363 12.277 71.6116 12.1785 70.8673 12.0544C69.582 11.8409 68.7142 10.3691 68.5556 9.40915C68.3971 8.44832 68.5556 7.52855 69.0572 6.69364C69.5901 5.80581 70.415 5.3806 71.4047 5.2638C71.8131 5.21544 72.2251 5.17985 72.6353 5.17894C74.7302 5.17438 76.826 5.18259 78.921 5.18806C79.0293 5.18806 79.1377 5.20084 79.2532 5.20723L79.2532 5.20631Z" fill="#00FF86"/>
<path d="M129.994 5.23138L129.994 7.6257C129.845 7.6257 129.728 7.6257 129.611 7.6257C128.23 7.6257 126.848 7.62296 125.467 7.63209C125.212 7.63391 124.96 7.70143 124.705 7.71695C123.98 7.76166 123.631 8.22975 123.43 8.87031C123.373 9.05371 123.31 9.23621 123.259 9.42144C123.166 9.76179 123.21 9.8284 123.553 9.83296C124.879 9.8503 126.205 9.86399 127.529 9.87402C128.329 9.8795 129.13 9.87494 129.969 9.87494C129.969 10.541 129.968 11.1725 129.969 11.8039C129.971 12.3423 129.972 12.345 129.458 12.3432C127.487 12.3368 125.516 12.3295 123.545 12.3231C123.15 12.3213 123.109 12.3642 123.233 12.7501C123.425 13.3542 123.581 14.0112 124.234 14.2758C124.598 14.4236 125.007 14.5048 125.399 14.5167C126.802 14.5596 128.206 14.5669 129.61 14.5723C129.905 14.5732 130.017 14.6444 129.998 14.9747C129.964 15.5514 129.977 16.1317 129.99 16.7102C129.995 16.9502 129.942 17.0533 129.679 17.0506C128.208 17.0314 126.738 17.0561 125.268 17.0123C124.17 16.9794 123.093 16.7842 122.158 16.1317C120.679 15.0997 119.95 13.6325 119.782 11.8422C119.68 10.7555 119.753 9.68514 120.112 8.65497C120.761 6.79079 122.023 5.621 123.972 5.33996C125.942 5.05527 127.929 5.17481 129.91 5.19853C129.94 5.19853 129.97 5.22134 129.997 5.23229L129.994 5.23138Z" fill="#00FF86"/>
<path d="M110.013 7.62069L110.013 5.18075C110.602 5.18075 111.168 5.17163 111.731 5.18531C111.97 5.19079 112.047 5.14334 112.042 4.86595C112.016 3.61769 112.025 2.36852 112.023 1.11935C112.023 1.03175 112.039 0.944155 112.05 0.835571L115.129 0.835571C115.135 0.957842 115.147 1.06643 115.146 1.17501C115.144 2.38951 115.146 3.60492 115.134 4.81941C115.133 5.04479 115.184 5.15155 115.425 5.15247C116.194 5.15429 116.962 5.17163 117.731 5.1844C117.884 5.18714 118.036 5.19991 118.198 5.20904C118.198 5.97643 118.201 6.71096 118.197 7.44641C118.195 7.70464 117.995 7.63803 117.852 7.63712C117.072 7.63712 116.292 7.63986 115.512 7.62161C115.218 7.61522 115.125 7.72836 115.13 8.02127C115.157 9.6555 115.155 11.2906 115.197 12.9249C115.21 13.4295 115.285 13.9569 115.746 14.2872C115.87 14.3757 116.035 14.435 116.187 14.4487C116.763 14.5016 117.341 14.5372 117.919 14.5628C118.127 14.5719 118.216 14.6348 118.21 14.8621C118.193 15.509 118.204 16.1568 118.18 16.8029C118.177 16.895 118.049 17.062 117.981 17.0602C116.804 17.0383 115.621 17.1551 114.457 16.8412C112.915 16.426 112.271 15.4588 112.17 14.0226C112.038 12.1575 112.067 10.2805 112.027 8.40907C112.008 7.46831 112.143 7.63621 111.248 7.62161C110.84 7.61522 110.431 7.62069 110.011 7.62069L110.013 7.62069Z" fill="#00FF86"/>
</svg>
