<svg width="130" height="20" viewBox="0 0 130 20" fill="none" xmlns="http://www.w3.org/2000/svg">
<path d="M12.7242 0.697711C12.6184 0.797419 12.5571 0.871997 12.4808 0.923878C11.6047 1.51726 10.766 2.16334 10.069 2.9683C8.96778 4.23937 8.29224 5.72202 8.25723 7.43003C8.2087 9.8295 8.24052 12.2298 8.2262 14.6301C8.22222 15.2737 8.22779 15.9255 8.13629 16.5602C7.90076 18.2009 6.25687 19.7995 4.6631 19.9722C2.40334 20.2162 0.733988 18.8219 0.247026 17.1382C0.0632222 16.5018 0.0274173 15.8047 0.0194603 15.1343C-0.00679751 12.8556 -0.00520681 10.5769 0.0138896 8.29822C0.0258249 6.9023 0.262941 5.55503 0.979061 4.3253C1.72542 3.0445 2.79323 2.11551 4.05122 1.41755C6.67301 -0.0383445 9.41973 -0.434745 12.3001 0.518561C12.4274 0.560714 12.5492 0.623133 12.7234 0.697711L12.7242 0.697711Z" fill="#1F72E5"/>
<path d="M24.8591 1.67473C23.1865 0.619286 21.2387 -0.012198 19.2725 0.0186061C17.3931 0.0477889 15.5431 0.682515 13.9621 1.71769C12.7232 2.52914 11.6196 3.61458 11.0005 4.97563C10.0107 7.153 10.3751 9.67812 10.3608 12.0768C10.3497 13.8861 10.0926 15.7976 10.683 17.5469C11.1485 18.9266 12.9166 19.9018 14.278 19.9618C15.6195 20.021 16.9762 19.3449 17.7329 18.2157C18.4641 17.1254 18.6137 15.7368 18.5795 14.4163C18.5445 13.0958 18.3479 11.7744 18.4752 10.4596C18.4848 10.1215 18.4935 9.78269 18.5031 9.44466C18.5317 8.38678 18.5628 7.31431 18.8651 6.30183C19.3234 4.7673 20.4191 3.44191 21.8267 2.72207C22.83 2.20894 23.9536 2.00223 25.0588 1.802C24.9927 1.75823 24.9259 1.71526 24.8591 1.67311L24.8591 1.67473Z" fill="#1F72E5"/>
<path d="M28.6437 7.71123C28.6167 7.42022 28.5777 7.13001 28.5188 6.84304C28.3645 6.08672 28.0645 5.34499 27.5489 4.77836C26.9529 4.12418 26.0904 3.7448 25.2159 3.69211C24.3415 3.64023 23.4606 3.90287 22.7182 4.37872C22.022 4.82456 21.4348 5.4674 21.1165 6.23993C20.7839 7.04732 20.7569 7.94632 20.7306 8.82099C20.7075 9.60487 20.6813 10.3888 20.6686 11.1726C20.6487 12.3748 20.6598 13.5778 20.6709 14.78C20.6821 15.9562 20.6542 17.3075 21.3942 18.2803C22.069 19.1671 23.0787 19.8083 24.1807 19.9405C24.9836 20.0369 25.8063 19.8683 26.5384 19.5189C27.229 19.189 27.8552 18.6864 28.2515 18.0225C28.8785 16.9711 28.8681 15.6644 28.8387 14.4338C28.7965 12.6715 28.7536 10.9092 28.7114 9.14768C28.6994 8.66859 28.6883 8.18707 28.6437 7.71042L28.6437 7.71123Z" fill="#1F72E5"/>
<path d="M38.0045 17.0521C37.1787 17.0521 36.3681 17.0521 35.5567 17.0521C34.8169 17.0521 34.919 17.1315 34.919 16.4043C34.9172 12.7489 34.9172 9.09358 34.9172 5.43914C34.9172 5.37253 34.9172 5.30592 34.9172 5.20007C35.0605 5.18912 35.1886 5.17087 35.3166 5.17087C39.2835 5.17635 43.2503 5.16814 47.2162 5.20372C47.9202 5.21011 48.6492 5.30683 49.3192 5.51853C50.7388 5.96655 51.4517 7.07246 51.5099 8.53424C51.6094 11.0152 51.6165 13.5008 51.6604 15.9845C51.6667 16.324 51.6604 16.6634 51.6604 17.0439L48.5543 17.0439C48.548 16.9317 48.5355 16.8103 48.5355 16.6899C48.5203 14.2718 48.4853 11.8547 48.5024 9.43667C48.5104 8.33714 48.042 7.84715 46.9592 7.69933C46.3779 7.61994 45.7814 7.65188 45.1929 7.62268C44.8777 7.60717 44.772 7.73217 44.7729 8.06066C44.7791 10.5353 44.7684 13.0099 44.7639 15.4845C44.763 15.9827 44.7639 16.4818 44.7639 17.0321L41.6739 17.0321C41.6686 16.918 41.6578 16.7857 41.6578 16.6534C41.6551 13.8384 41.6524 11.0235 41.6506 8.20757C41.6506 7.67652 41.648 7.65735 41.1159 7.64732C40.214 7.62998 39.3112 7.64275 38.4093 7.62268C38.137 7.61629 38.0501 7.74039 38.0519 7.98037C38.0546 8.28604 38.0725 8.59263 38.0707 8.89831C38.0591 11.5764 38.0448 14.2554 38.0304 16.9335C38.0304 16.9554 38.0206 16.9773 38.0036 17.0521L38.0045 17.0521Z" fill="#1F72E5"/>
<path d="M82.3945 8.93437C82.3945 6.36941 82.3999 3.80446 82.3882 1.23951C82.3864 0.916495 82.4733 0.814298 82.7984 0.823423C83.6 0.846235 84.4025 0.834375 85.2041 0.822513C85.4925 0.81795 85.5839 0.918321 85.5722 1.22126C85.5283 2.43393 85.5158 3.64752 85.4836 4.86019C85.4764 5.14214 85.6421 5.17317 85.8499 5.17408C86.7187 5.17773 87.5874 5.17043 88.4562 5.18868C89.3375 5.20784 90.2135 5.28723 91.0491 5.60111C92.6738 6.21064 93.6644 7.39868 94.0504 9.10317C94.3505 10.4272 94.3245 11.7521 93.9904 13.0742C93.5363 14.8691 91.6949 16.6931 89.7254 16.8874C87.3671 17.1201 85.008 17.0389 82.6488 17.059C82.3667 17.0617 82.3945 16.882 82.3945 16.6977C82.3945 15.0178 82.3945 13.3379 82.3936 11.659C82.3936 10.7511 82.3936 9.84318 82.3936 8.93528L82.3945 8.93437ZM85.5427 10.5211C85.5516 10.9281 85.5588 11.336 85.5651 11.7429C85.574 12.3351 85.5794 12.9273 85.5821 13.5204C85.5848 14.0697 85.4092 14.5844 86.0926 14.5844C86.6237 14.5734 87.1548 14.5625 87.686 14.5524C88.2852 14.5406 88.904 14.5242 89.4486 14.2696C90.0505 13.9894 90.5037 13.4356 90.7598 12.8142C91.016 12.1928 91.0885 11.5057 91.0697 10.8323C91.0437 9.87695 90.7939 8.84768 90.0576 8.25457C89.3411 7.67698 88.3514 7.64869 87.4388 7.64687C86.9121 7.64504 86.3855 7.64413 85.8579 7.64231C85.7944 7.64231 85.7281 7.64231 85.6699 7.66694C85.4898 7.74359 85.4683 7.99087 85.4755 8.18888C85.5033 8.96539 85.5257 9.74281 85.5427 10.5202L85.5427 10.5211Z" fill="#1F72E5"/>
<path d="M97.0141 7.62071C97.0141 6.84967 97.0078 6.11513 97.0168 5.3815C97.0204 5.07674 97.2738 5.14426 97.444 5.14426C98.268 5.14244 99.092 5.15065 99.9169 5.16525C101.376 5.19262 102.836 5.19445 104.292 5.26745C106.11 5.35778 107.519 6.60786 107.87 8.37805C107.925 8.65453 107.956 8.94013 107.961 9.22209C107.995 11.7861 108.021 14.3511 108.048 16.9151C108.048 16.958 108.034 17.0009 108.021 17.0794C107.806 17.0794 107.597 17.0794 107.389 17.0794C104.882 17.0766 102.375 17.0839 99.8694 17.0639C99.4073 17.0602 98.9281 17.0073 98.4883 16.8731C96.8484 16.3713 96.0244 15.0628 96.1794 13.3246C96.2779 12.2186 96.5914 11.2487 97.5587 10.5908C98.2125 10.1464 98.9281 9.92286 99.693 9.90279C101.319 9.86082 102.944 9.85625 104.571 9.84257C104.952 9.83983 105.008 9.78691 104.927 9.41736C104.916 9.36261 104.89 9.3106 104.878 9.25494C104.613 8.0085 104.366 7.74936 102.927 7.69188C101.069 7.61797 99.2075 7.63895 97.3473 7.61888C97.2398 7.61797 97.1314 7.61888 97.0159 7.61888L97.0141 7.62071ZM102.444 12.3728C102.444 12.3728 102.444 12.382 102.444 12.3856C101.742 12.3856 101.04 12.3756 100.339 12.3929C100.16 12.3975 99.9581 12.4522 99.8076 12.549C99.4073 12.8072 99.2407 13.33 99.367 13.8082C99.4816 14.2407 99.7387 14.4277 100.306 14.4588C101.083 14.5016 101.861 14.5381 102.64 14.5619C103.296 14.5819 103.954 14.5847 104.611 14.5856C104.781 14.5856 104.98 14.613 104.966 14.3173C104.94 13.7853 104.922 13.2516 104.933 12.7196C104.938 12.4404 104.833 12.3665 104.581 12.3701C103.869 12.3801 103.156 12.3738 102.444 12.3738L102.444 12.3728Z" fill="#1F72E5"/>
<path d="M54.9985 7.63162L54.9985 5.21266C55.1131 5.20171 55.209 5.18437 55.3057 5.18437C57.389 5.1862 59.4723 5.17707 61.5555 5.2008C62.3231 5.20992 63.0772 5.30664 63.7964 5.65429C65.0226 6.24557 65.7212 7.2283 65.8896 8.56233C66.0123 9.53594 66.0239 10.5278 66.0391 11.5123C66.0651 13.226 66.0472 14.9405 66.0651 16.6541C66.0687 16.9662 65.9818 17.0565 65.6719 17.0556C63.0208 17.0529 60.3688 17.0757 57.7177 17.0675C57.2905 17.0656 56.8579 16.9689 56.4369 16.8749C55.106 16.5802 54.1817 15.1294 54.1548 13.8245C54.1172 11.9814 54.865 10.6747 56.4297 10.1519C57.071 9.93743 57.7849 9.89454 58.4682 9.87264C59.7257 9.83249 60.985 9.86625 62.2443 9.86717C62.3885 9.86717 62.5425 9.8845 62.6742 9.83979C62.7566 9.8115 62.8668 9.67555 62.8587 9.5989C62.8291 9.29596 62.7969 8.98298 62.6948 8.70103C62.4978 8.15446 62.1359 7.76575 61.5179 7.75206C59.4696 7.70735 57.4212 7.67085 55.3729 7.63162C55.2529 7.62888 55.1337 7.63162 54.9985 7.63162ZM60.4476 12.3573C59.8153 12.3655 59.1839 12.3746 58.5515 12.3847C58.3375 12.3883 58.1162 12.3929 57.9201 12.4805C57.6505 12.6009 57.4615 12.8701 57.3908 13.1612C57.2036 13.9222 57.5708 14.4386 58.316 14.4605C59.7526 14.5016 61.1901 14.5427 62.6276 14.5837C62.693 14.5855 62.7629 14.5855 62.8157 14.5463C62.8874 14.4916 62.8945 14.3875 62.8954 14.2963C62.9008 13.789 62.9071 13.2825 62.9124 12.7752C62.9142 12.6256 62.9008 12.4485 62.7754 12.3719C62.71 12.3327 62.6294 12.3317 62.5533 12.3327C61.852 12.339 61.1498 12.3473 60.4485 12.3564L60.4476 12.3573Z" fill="#1F72E5"/>
<path d="M79.2531 5.20632L79.2531 7.61706C78.5438 7.61706 77.8658 7.61067 77.1878 7.61797C75.8515 7.63257 74.5143 7.65174 73.1779 7.67455C73.0123 7.67728 72.8457 7.70557 72.68 7.72839C72.0879 7.81051 71.8613 8.01125 71.7924 8.51037C71.7136 9.08249 71.9357 9.59803 72.4131 9.77505C72.7606 9.90371 73.1421 9.98401 73.5111 9.9977C74.4784 10.0342 75.4484 10.0059 76.4166 10.036C77.1887 10.0597 77.9141 10.3134 78.5572 10.7313C79.2997 11.214 79.7189 11.9239 79.7708 12.8473C79.8317 13.9241 79.6472 14.9214 78.9844 15.7955C78.3664 16.6113 77.5272 16.99 76.5501 17.0082C74.1658 17.0529 71.7816 17.0584 69.3965 17.0766C68.6863 17.0821 68.6872 17.0785 68.6899 16.3631C68.6916 15.8977 68.7069 15.4315 68.6854 14.967C68.6702 14.6467 68.7955 14.5591 69.0929 14.5619C70.7866 14.5765 72.4802 14.5774 74.1748 14.5783C74.7319 14.5783 75.289 14.5728 75.8452 14.5573C76.2339 14.5464 76.5662 14.373 76.671 13.9861C76.7919 13.5381 76.7489 13.0846 76.4032 12.7159C76.1694 12.4668 75.8703 12.3966 75.5523 12.3884C74.74 12.3665 73.9249 12.3838 73.1144 12.3281C72.3629 12.277 71.6115 12.1785 70.8672 12.0544C69.5819 11.8409 68.714 10.3691 68.5555 9.40915C68.397 8.44832 68.5555 7.52855 69.0571 6.69364C69.59 5.80581 70.4149 5.3806 71.4046 5.2638C71.813 5.21544 72.225 5.17986 72.6352 5.17895C74.7301 5.17438 76.8259 5.18259 78.9208 5.18807C79.0292 5.18807 79.1376 5.20084 79.2531 5.20723L79.2531 5.20632Z" fill="#1F72E5"/>
<path d="M129.994 5.23132L129.994 7.62564C129.844 7.62564 129.728 7.62564 129.611 7.62564C128.23 7.62564 126.848 7.6229 125.466 7.63202C125.212 7.63385 124.96 7.70137 124.705 7.71689C123.98 7.7616 123.63 8.22969 123.43 8.87025C123.372 9.05365 123.31 9.23615 123.259 9.42138C123.166 9.76173 123.21 9.82834 123.553 9.8329C124.879 9.85024 126.204 9.86392 127.529 9.87396C128.329 9.87944 129.13 9.87488 129.969 9.87488C129.969 10.541 129.968 11.1724 129.969 11.8038C129.971 12.3422 129.972 12.3449 129.458 12.3431C127.487 12.3367 125.516 12.3294 123.544 12.323C123.149 12.3212 123.109 12.3641 123.233 12.7501C123.425 13.3541 123.581 14.0111 124.234 14.2757C124.598 14.4235 125.007 14.5047 125.399 14.5166C126.802 14.5595 128.206 14.5668 129.61 14.5723C129.904 14.5732 130.017 14.6444 129.998 14.9747C129.964 15.5513 129.977 16.1317 129.989 16.7102C129.995 16.9502 129.942 17.0533 129.679 17.0505C128.208 17.0314 126.737 17.056 125.268 17.0122C124.17 16.9794 123.093 16.7841 122.158 16.1317C120.679 15.0997 119.95 13.6324 119.782 11.8422C119.68 10.7554 119.753 9.68508 120.111 8.6549C120.761 6.79073 122.023 5.62094 123.972 5.3399C125.942 5.05521 127.929 5.17475 129.91 5.19847C129.94 5.19847 129.97 5.22128 129.997 5.23223L129.994 5.23132Z" fill="#1F72E5"/>
<path d="M110.013 7.62073L110.013 5.18079C110.602 5.18079 111.168 5.17166 111.731 5.18535C111.97 5.19082 112.047 5.14338 112.042 4.86599C112.016 3.61773 112.025 2.36856 112.023 1.11939C112.023 1.03179 112.039 0.944191 112.05 0.835608L115.129 0.835608C115.135 0.957878 115.147 1.06646 115.146 1.17505C115.144 2.38954 115.146 3.60495 115.134 4.81945C115.133 5.04483 115.184 5.15159 115.426 5.1525C116.194 5.15433 116.962 5.17166 117.731 5.18444C117.884 5.18717 118.036 5.19995 118.198 5.20907C118.198 5.97646 118.201 6.711 118.197 7.44645C118.195 7.70468 117.995 7.63807 117.852 7.63715C117.072 7.63715 116.292 7.63989 115.512 7.62164C115.218 7.61526 115.126 7.7284 115.13 8.0213C115.157 9.65554 115.155 11.2907 115.197 12.9249C115.211 13.4295 115.285 13.9569 115.746 14.2872C115.87 14.3757 116.035 14.4351 116.187 14.4487C116.763 14.5017 117.341 14.5372 117.919 14.5628C118.127 14.5719 118.216 14.6349 118.21 14.8621C118.193 15.509 118.204 16.1569 118.181 16.8029C118.177 16.8951 118.049 17.0621 117.981 17.0602C116.804 17.0383 115.621 17.1551 114.457 16.8412C112.915 16.4261 112.271 15.4588 112.17 14.0226C112.038 12.1575 112.067 10.2806 112.027 8.4091C112.008 7.46835 112.143 7.63624 111.248 7.62164C110.84 7.61526 110.431 7.62073 110.011 7.62073L110.013 7.62073Z" fill="#1F72E5"/>
</svg>
