<svg width="284" height="284" viewBox="0 0 284 284" fill="none" xmlns="http://www.w3.org/2000/svg">
<path d="M57.8267 233.123C62.748 243.043 76.2229 248.294 86.6585 242.983C87.7481 250.837 95.1593 256.222 102.948 256.222C109.2 256.222 115.879 253.042 120.623 246.397C123.581 247.584 126.721 246.377 128.284 243.843C128.29 243.847 128.297 243.852 128.303 243.855C142.99 252.087 160.762 249.337 172.515 238.752C174.942 236.567 176.449 234.554 177.256 232.411C179.726 225.674 172.627 215.368 169.332 208.637C183.527 207.245 196.129 197.423 201.831 181.672L221.416 180.338C226.005 180.027 229.737 175.352 229.737 169.915V71.8748C229.737 69.1951 228.799 66.5926 227.185 64.6602C227.193 64.425 227.898 42.5644 227.854 43.9145C227.854 43.9134 227.854 43.9123 227.854 43.9112C227.908 41.9205 225.913 40.4448 224.059 41.2207C220.935 42.5232 235.378 36.5031 193.509 53.9548C191.601 54.7374 191.169 57.4416 192.925 58.7554C193.308 59.0465 192.827 58.8375 196.099 59.5386L197.443 59.8218C72.3339 51.3469 81.2429 51.7942 79.4262 51.8846C78.5392 51.9537 77.7044 52.1648 76.8984 52.4366C73.8891 52.4249 69.31 52.4094 69.2948 52.4246C63.9306 52.6727 59.7414 57.0953 59.7414 62.7815V162.2C53.5357 161.249 49.5115 168.409 53.2651 173.375C38.3993 189.126 42.809 210.611 57.1037 217.368C55.1901 222.502 55.452 228.351 57.8267 233.123ZM176.219 232.012C175.481 233.974 174.07 235.847 171.779 237.907C153.566 254.307 125.615 248.845 114.064 228.278C106.683 215.19 107.786 199.022 117.032 183.809C119.279 188.484 122.288 192.778 125.971 196.421C123.74 203.403 122.275 210.791 121.699 218.179C121.642 218.924 122.746 219.01 122.803 218.269C123.745 206.195 127.08 194.563 131.269 186.007C132.072 184.198 133.446 181.633 134.966 180.132C136.432 178.662 138.205 178.024 139.573 178.356C139.666 178.406 139.75 178.423 139.826 178.443C141.419 178.924 142.932 180.618 143.971 183.08C145.423 186.681 145.77 190.695 145.506 194.609C145.181 199.692 144.363 200.597 144.619 204.57C144.642 204.887 144.708 205.289 144.91 205.632C144.81 205.698 144.715 205.779 144.673 205.902C144.292 207.028 144.058 208.214 143.982 209.424C143.93 210.174 145.043 210.246 145.086 209.497C145.192 207.86 145.543 206.89 145.717 206.213C146.2 206.28 146.648 206.098 146.989 205.988C147.907 205.671 149.18 206.187 150.204 206.606C150.425 206.769 159.226 209.612 163.27 221.277C163.35 221.509 163.562 221.654 163.792 221.654C163.852 221.654 163.915 221.644 163.976 221.622C164.263 221.518 164.415 221.195 164.313 220.902C162.691 216.222 159.944 212.178 156.562 209.248C160.355 209.288 162.313 208.89 163.649 208.73C165.549 208.848 166.046 208.863 168.133 208.729C171.257 215.245 178.512 225.749 176.219 232.012ZM80.0391 121.138C78.3032 119.324 78.3969 116.44 80.1427 114.723C81.9005 112.996 84.6973 113.016 86.4074 114.823C96.5194 125.388 105.34 134.59 105.113 134.355C105.325 134.515 105.62 134.513 105.837 134.263C106.036 134.034 143.474 84.71 143.634 84.4822C145.33 82.2704 148.404 82.191 150.238 83.9721C150.462 84.1893 175.456 108.533 175.228 108.312C175.24 108.321 175.239 108.339 175.252 108.347C175.51 108.518 175.815 108.437 175.983 108.223C223.156 35.9217 199.791 71.7321 206.547 61.3784C206.767 61.0417 206.575 60.5829 206.194 60.5036C205.971 60.4568 192.725 57.6769 193.565 57.8532C192.513 57.0477 192.863 55.4431 193.935 55.0036C197.06 53.7011 182.619 59.7209 224.479 42.2707C225.462 41.8452 226.726 42.6643 226.732 43.8189C226.735 44.3182 226.06 64.9915 226.068 64.7631C226.06 64.9888 225.673 76.9168 225.681 76.6818C225.631 77.9643 224.24 78.6967 223.209 78.0468L214.799 66.463C214.627 66.2233 214.121 66.1345 213.892 66.4861L180.107 118.299C179.311 119.558 177.943 120.291 176.514 120.296C175.277 119.814 174.352 119.516 173.65 119.312C173.258 118.997 175.275 120.913 148.082 94.4365C147.814 94.1815 147.446 94.2575 147.26 94.4993L109.377 144.436C107.797 146.534 104.632 146.828 102.697 144.814C100.365 142.378 111.114 153.61 80.0391 121.138ZM95.2519 89.6776C94.9418 89.6776 94.6977 89.4069 94.6977 89.0909C94.7199 88.7976 94.964 88.572 95.2741 88.5494L107.111 88.7976V77.0869C107.111 76.7711 107.378 76.5228 107.665 76.5228C107.976 76.5228 108.22 76.7711 108.22 77.0869V88.8202L138.45 89.46L137.611 90.5658L108.22 89.9484V114.746L119.054 115.022L118.215 116.128L108.22 115.874V129.299L107.111 130.76V115.852L94.3211 115.536C93.659 115.536 93.555 114.463 94.3654 114.408L107.111 114.724V89.9258L95.2519 89.6776ZM185.517 91.581L159.054 91.0039L157.874 89.8529L186.253 90.4534L185.517 91.581ZM152.486 84.5977L151.378 83.5166V79.885C151.378 79.569 151.622 79.3209 151.932 79.3209C152.221 79.3209 152.486 79.569 152.486 79.885V84.5977ZM132.95 133.754C130.218 133.254 127.384 133.51 124.835 134.466C131.176 127.329 139.742 122.323 149.304 120.556C142.961 123.273 137.555 127.445 132.95 133.754ZM132.827 115.372L151.378 115.829V99.209L152.486 100.289V115.852L168.88 116.26L170.062 117.411L152.486 116.98V118.965C152.118 119.003 151.744 119.024 151.378 119.071V116.957L131.988 116.478L132.827 115.372ZM107.111 147.147C107.496 147.06 107.865 146.932 108.22 146.764V167.613C108.22 167.929 107.976 168.177 107.665 168.177C107.378 168.177 107.111 167.929 107.111 167.613V147.147ZM110.267 145.111C110.266 145.111 110.267 145.11 110.267 145.111L110.323 145.036L116.616 145.111C116.448 145.477 116.284 145.846 116.126 146.217L109.225 146.143C109.716 145.76 109.931 145.473 110.267 145.111ZM123.99 135.474C124.146 135.729 124.415 135.815 124.66 135.709C126.991 134.715 129.638 134.421 132.213 134.793C127.789 141.266 125.22 148.796 124.448 156.521C124.34 157.577 124.318 158.625 124.275 159.675C120.636 160.04 117.092 161.471 114.256 163.79C113.849 164.121 114.078 164.793 114.603 164.793C114.724 164.793 114.847 164.753 114.949 164.669C117.574 162.524 120.844 161.194 124.212 160.823C124.042 169.872 126.18 178.343 130.147 185.786C129.733 186.642 129.334 187.522 128.95 188.397C126.9 189.233 124.931 190.262 123.075 191.453C110.244 175.024 110.3 151.828 123.99 135.474ZM126.362 195.21C125.458 194.292 124.601 193.332 123.783 192.338C125.23 191.418 126.756 190.621 128.329 189.918C127.625 191.65 126.963 193.412 126.362 195.21ZM155.192 208.127C152.76 206.33 150.837 205.666 150.615 205.558C149.489 205.1 147.948 204.471 146.636 204.918L146.47 204.977C146.303 205.037 145.961 205.161 145.848 205.097C145.661 204.888 145.682 203.091 145.688 202.807C149.742 205.386 154.109 207.146 158.705 208.064C157.569 208.11 156.428 208.139 155.28 208.093C155.247 208.091 155.224 208.122 155.192 208.127ZM145.757 201.559C145.961 199.388 147.346 193.773 146.312 187.527C163.754 206.197 193.026 195.816 196.798 168.674C199.391 150.239 188.108 132.775 171.639 129.683C147.571 125.16 129.445 152.828 139.738 177.289C137.647 176.862 135.667 177.841 134.191 179.326C132.794 180.704 131.627 182.75 130.755 184.513C126.177 175.565 124.601 165.856 125.552 156.637C127.949 132.523 147.529 115.701 168.954 119.364C190.249 122.978 206.009 145.395 203.427 169.924C200.209 201.25 169.828 217.39 145.757 201.559ZM160.119 139.535C160.168 139.333 160.326 139.175 160.528 139.127C161.759 138.828 163.034 138.703 164.314 138.753C165.097 138.784 165.485 139.137 165.563 139.903C165.669 140.946 165.727 141.892 165.368 142.925C165.327 143.048 165.323 143.133 165.355 143.177C165.472 143.334 165.987 143.476 166.617 143.429C166.688 143.424 168.026 143.325 168.096 143.312C168.08 143.291 168.078 143.217 168.054 143.085C167.611 140.427 167.506 140.121 167.708 139.588C168.087 138.581 169.325 138.457 169.853 138.403C170.983 138.288 172.397 138.143 173.655 138.734C174.601 139.183 174.356 139.852 174.291 140.94C174.21 141.907 174.286 141.691 174.139 142.463C174.085 142.74 174.003 143.161 174.053 143.323C174.248 143.689 176.125 144.091 176.793 144.403C180.174 146.002 182.296 147.428 183.647 150.965C185.595 156.095 183.656 160.554 179.908 162.159C182.868 164.209 184.66 167.741 184.359 171.141C184.024 174.941 181.082 178.451 177.207 179.678C176.131 180.02 175.019 180.199 173.269 180.521C173.148 180.544 173.1 180.56 173.085 180.569C173.116 180.594 173.15 180.998 173.167 181.214C173.245 182.132 173.075 182.332 173.176 183.805C173.224 184.584 172.978 184.977 172.293 185.287C170.905 185.907 169.327 186.046 167.873 185.738C167.23 185.609 166.962 185.252 166.953 184.688L166.864 180.628C166.167 180.635 165.489 180.624 164.805 180.592C164.83 180.898 164.83 180.749 164.554 184.692C164.541 184.987 164.426 185.214 164.216 185.353C164.024 185.483 163.825 185.472 163.714 185.475C162.647 185.44 161.565 185.33 160.502 185.146C159.996 185.061 159.724 184.807 159.662 184.297L159.27 180.568C158.133 180.698 152.993 180.113 152.317 179.582C151.997 179.328 151.93 178.949 151.897 178.767C151.683 177.539 151.585 176.296 151.607 175.071C151.626 174.603 151.823 174.336 152.302 174.199C153.272 173.931 153.99 173.877 154.822 174.041C155.78 165.778 154.898 157.208 155.317 148.855C153.655 148.53 151.392 149.175 151.486 146.838C151.612 143.702 151.502 143.314 152.049 142.945C152.433 142.683 152.196 142.759 160.205 142.95C159.874 141.832 159.839 140.647 160.119 139.535ZM228.629 71.8748V169.915C228.629 174.77 225.36 178.94 221.343 179.212L202.242 180.513C204.002 175.228 204.794 170.226 204.794 164.813C207.553 164.005 209.61 161.023 209.61 157.595V147.283L201.685 147.199C201.547 146.82 201.401 146.445 201.255 146.071L209.61 146.155V118.401L196.266 118.063V136.519C195.905 135.983 195.538 135.452 195.157 134.934V118.04L181.815 117.718L182.55 116.59L195.157 116.912V97.2563L196.266 95.5566V116.935L209.61 117.273V92.092L198.678 91.8574L199.412 90.7304L209.61 90.9638V83.7207C209.61 81.5901 208.799 79.6397 207.543 78.2626L214.375 67.784C222.335 78.7468 222.281 78.7874 222.503 78.9426C224.304 80.168 226.715 78.9156 226.798 76.7126L227.127 66.4747C228.085 68.045 228.629 69.935 228.629 71.8748ZM205.141 61.4775L195.847 75.7348L97.8901 69.0768C93.4346 68.7608 89.7768 72.2583 89.7768 76.8613V116.728L87.204 114.038C85.9053 112.67 83.9772 111.969 81.8637 112.519V105.179C81.8637 104.867 81.6147 104.615 81.3095 104.615C81.0043 104.615 80.7553 104.867 80.7553 105.179V112.944C77.2612 114.73 76.7125 119.29 79.2509 121.931L80.7553 123.503V156.512C80.7553 156.823 81.0043 157.076 81.3095 157.076C81.6147 157.076 81.8637 156.823 81.8637 156.512V124.661C82.0797 124.887 90.3002 133.477 89.7768 132.93V144.779L101.235 144.905C101.879 145.541 101.634 145.407 102.432 146.054L89.7768 145.907V164.454C89.7768 169.057 93.4346 172.555 97.8901 172.239L113.053 171.216C113.382 172.633 113.754 176.508 116.46 182.586C115.647 183.89 114.914 185.204 114.219 186.521C78.1292 188.967 80.6375 188.814 80.2445 188.801C74.9258 188.801 70.7587 184.499 70.7587 179.008V62.7809C70.7587 57.5994 74.521 53.3984 79.4955 53.0106C81.2648 52.9341 72.475 52.4837 205.141 61.4775ZM59.7414 163.328V174.909C56.0753 175.58 52.9236 172.684 52.9236 169.118C52.9236 165.548 56.0805 162.657 59.7414 163.328ZM54.0038 174.222C55.4476 175.603 57.4181 176.393 59.7414 176.037V179.008C59.7414 185.055 64.4626 189.636 70.2706 189.365H76.9809C78.2578 189.781 79.6396 190.025 80.9913 189.906L113.613 187.693C106.494 201.926 106.236 216.663 113.103 228.838C115.35 232.84 117.46 234.939 118.327 235.988C115.523 238.959 116.183 243.722 119.627 245.882C115.839 251.32 109.58 255.094 102.816 255.094C95.507 255.036 88.5101 249.907 87.7041 242.409C90.9966 240.484 93.3085 237.627 94.2328 234.334C95.1429 231.144 92.8301 228.489 90.2281 231.138C87.6305 233.783 86.2645 237.739 86.5351 241.777C76.6841 247.106 63.559 242.177 58.816 232.614C56.5885 228.139 56.3374 222.654 58.1189 217.824C61.7312 219.352 66.4234 219.902 69.4858 217.423C74.9619 212.944 69.566 203.61 61.8401 210.374C60.0109 211.982 58.5281 214.03 57.5258 216.324C44.0579 209.907 39.7027 189.457 54.0038 174.222ZM87.6153 241.148C87.5179 237.624 88.7561 234.231 91.0118 231.935C92.9199 229.993 93.6593 232.289 93.1678 234.022C92.3669 236.876 90.4121 239.379 87.6153 241.148ZM58.5389 216.78C59.4762 214.637 60.8595 212.725 62.5631 211.228C69.1158 205.491 73.1178 213.006 68.7953 216.542C66.0734 218.747 61.7507 218.143 58.5389 216.78Z" fill="white"/>
<path d="M170.295 163.756L168.58 163.712C162.496 163.539 162.317 163.8 162.095 163.805C162.049 163.873 162.052 164.201 162.052 164.418C162.06 173.184 162.479 174.077 162.231 175.109C162.21 175.199 162.186 175.302 162.186 175.354C162.603 175.746 164.762 175.948 167.888 175.873C169.448 175.882 171.07 175.89 172.537 175.565C177.95 174.37 179.101 168.052 176.118 165.28C174.696 163.958 172.462 163.803 170.295 163.756ZM163.814 159.725C166.445 159.59 169.121 160.438 171.788 159.857C175.869 158.967 177.794 154.215 175.811 151.478C174.81 150.099 172.994 149.564 171.371 149.171C168.388 148.45 165.141 148.143 162.238 148.315C161.586 148.354 161.586 148.354 161.586 149.08C161.586 151.433 161.634 153.788 161.681 156.142C161.789 159.486 161.29 159.852 163.814 159.725Z" fill="white"/>
<path d="M152.713 143.9C152.692 144.133 152.631 145.954 152.594 146.884C152.56 147.632 152.5 147.485 155.945 147.776C156.246 147.802 156.471 148.065 156.454 148.371C155.953 157.123 156.967 166.059 155.843 174.815C155.799 175.147 155.481 175.382 155.135 175.283C154.248 175.015 153.64 175.007 152.676 175.264C152.699 176.239 152.899 178.49 153.027 178.724C154.275 178.995 158.683 179.729 159.536 179.355C159.87 179.203 160.265 179.432 160.307 179.813L160.748 184.042C161.688 184.2 162.584 184.296 163.47 184.336C163.69 181.016 163.791 180.584 163.595 180.324C163.307 179.939 163.603 179.392 164.073 179.42C165.874 179.544 167.628 179.489 167.405 179.489C167.705 179.489 167.95 179.732 167.959 180.04L168.061 184.662C169.364 184.899 170.7 184.768 171.847 184.253C172.007 184.182 172.053 184.145 172.066 184.13C172.07 184.114 172.081 184.053 172.07 183.875C171.968 182.408 172.123 182.094 172.063 181.308C171.848 178.711 172.972 179.837 176.878 178.6C180.335 177.506 182.958 174.397 183.255 171.04C183.552 167.685 181.519 164.175 178.309 162.502C177.849 162.261 177.934 161.561 178.447 161.448C182.157 160.643 184.553 156.475 182.612 151.372C181.379 148.135 179.42 146.888 176.326 145.426C176.107 145.324 175.778 145.227 175.421 145.119C172.845 144.337 172.745 143.824 173.051 142.244C173.17 141.633 173.166 140.953 173.25 139.871C172.206 139.296 170.959 139.425 169.964 139.525C169.243 139.598 168.832 139.756 168.743 139.991C168.654 140.223 168.783 140.716 169.148 142.898C169.301 143.842 168.954 144.385 168.005 144.456C167.05 144.508 165.227 144.866 164.474 143.861C164.286 143.61 164.106 143.178 164.325 142.549C164.606 141.737 164.554 140.957 164.459 140.02C164.452 139.956 164.446 139.91 164.439 139.881C164.029 139.89 162.808 139.79 161.121 140.148C160.932 141.192 161.069 142.298 161.517 143.3C161.684 143.667 161.42 144.098 161.013 144.098C160.789 144.098 152.546 143.905 152.769 143.902C152.754 143.902 152.735 143.9 152.713 143.9ZM172.771 176.667C171.067 177.045 169.25 177.009 167.502 176.999C165.626 177.018 161.078 177.223 161.078 175.353C161.078 175.168 161.119 174.996 161.153 174.845C161.372 173.957 160.953 173.607 160.943 164.531C160.941 163.745 160.939 162.722 162.266 162.622C164.368 162.464 166.526 162.523 168.611 162.584C171.378 162.701 174.703 162.436 176.865 164.447C180.52 167.841 179.049 175.286 172.771 176.667ZM162.173 147.189C165.186 147.014 168.541 147.327 171.626 148.074C173.574 148.544 175.538 149.202 176.702 150.808C179.151 154.191 176.913 159.881 172.022 160.961C169.195 161.577 166.259 160.731 163.87 160.852C160.306 161.018 160.643 159.724 160.573 156.165C160.526 153.803 160.478 151.441 160.478 149.08C160.478 147.946 160.755 147.273 162.173 147.189ZM134.81 185.238C132.983 187.137 132.728 190.194 132.695 192.327C132.682 193.017 132.994 193.658 133.505 194.001C135.642 195.441 137.692 196.011 139.863 195.98C140.553 195.964 141.179 195.428 141.387 194.675C141.911 192.766 142.177 190.676 142.121 188.942C141.962 184.186 138.229 181.685 134.81 185.238ZM140.317 194.371C140.244 194.645 140.04 194.847 139.839 194.851C137.865 194.888 135.966 194.307 134.115 193.06C133.927 192.934 133.799 192.64 133.804 192.346C133.851 189.261 134.423 187.254 135.603 186.026C136.419 185.178 137.627 184.43 138.741 184.777C140.142 185.22 140.956 187.272 141.012 188.979C141.066 190.603 140.813 192.569 140.317 194.371ZM242.5 175.12C242.347 174.851 242.007 174.759 241.743 174.917C241.479 175.074 241.39 175.42 241.544 175.689C244.325 180.543 245.269 185.673 244.204 190.13C243.031 195.035 239.091 198.932 234.731 199.576C234.67 197.322 234.023 194.023 231.906 193.274C230.266 192.688 228.423 193.998 228.101 195.702C227.651 198.065 229.588 200.795 233.604 200.795C233.409 203.81 232.151 206.772 230.038 208.881C226.943 211.974 222.076 213.156 217.946 211.832C217.24 211.612 216.918 212.684 217.613 212.907C225.411 215.407 234.202 210.045 234.716 200.716C239.578 200.085 243.988 195.801 245.282 190.397C246.414 185.654 245.427 180.228 242.5 175.12ZM229.188 195.916C229.357 195.024 230.233 194.261 231.086 194.261C232.963 194.261 233.583 197.746 233.627 199.666C230.69 199.806 228.835 197.773 229.188 195.916ZM256.718 183.172C257.586 190.114 254.365 197.445 248.705 201.415C248.451 201.592 248.389 201.943 248.562 202.199C248.74 202.462 249.089 202.516 249.332 202.344C255.326 198.141 258.736 190.379 257.818 183.028C257.726 182.263 256.627 182.445 256.718 183.172ZM221.626 64.6307C221.648 64.6329 221.669 64.634 221.691 64.634C221.968 64.634 222.208 64.4225 222.241 64.1349L223.67 51.6444C223.706 51.3348 223.488 51.0549 223.185 51.0186C222.884 50.9877 222.607 51.2037 222.57 51.5143L221.141 64.0049C221.104 64.3145 221.323 64.5944 221.626 64.6307ZM169.056 108.951C169.56 108.951 169.803 108.315 169.428 107.968L158.607 98.0271C158.382 97.8211 158.027 97.8365 157.823 98.0679C157.618 98.2992 157.637 98.6562 157.862 98.8644C169.238 109.237 168.647 108.951 169.056 108.951ZM119.811 123.729L130.438 108.915C130.617 108.663 130.563 108.31 130.316 108.126C130.07 107.946 129.723 107.997 129.541 108.249L118.915 123.063C118.735 123.315 118.789 123.668 119.036 123.852C119.291 124.038 119.634 123.975 119.811 123.729ZM239.303 107.347V72.202C239.303 71.8902 239.054 71.6379 238.749 71.6379C238.444 71.6379 238.195 71.8902 238.195 72.202V107.347C238.195 107.659 238.444 107.911 238.749 107.911C239.054 107.911 239.303 107.659 239.303 107.347ZM250.752 85.9552C250.447 85.9552 250.198 86.2075 250.198 86.5193V97.8233C250.198 98.1351 250.447 98.3874 250.752 98.3874C251.058 98.3874 251.307 98.1351 251.307 97.8233V86.5193C251.307 86.2075 251.058 85.9552 250.752 85.9552ZM221.037 104.416C220.732 104.416 220.483 104.668 220.483 104.98V136.602C220.483 136.913 220.732 137.166 221.037 137.166C221.343 137.166 221.592 136.913 221.592 136.602V104.98C221.592 104.668 221.343 104.416 221.037 104.416Z" fill="white"/>
<path d="M243.594 238.193H236V245.924H243.594V238.193Z" fill="#00FF86"/>
<path d="M278.024 63.1108H273V68.2249H278.024V63.1108Z" fill="#F4FCF8"/>
<path d="M7.03942 148.617H0V155.782H7.03942V148.617Z" fill="white"/>
<path d="M16.1779 155.782H7.03931V165.085H16.1779V155.782Z" fill="#1F72E5"/>
<path d="M81.9825 0H69V13.2152H81.9825V0Z" fill="#00FF86"/>
</svg>
